<svg viewBox="0 0 495 413" fill="none" xmlns="http://www.w3.org/2000/svg">
<g clip-path="url(#clip0)">
<path opacity="0.27" d="M270.292 51.1004C270.292 51.1004 314.76 45.7029 331.618 88.131C348.476 130.559 371.086 138.952 397.362 147.055C423.637 155.157 463.324 202.485 445.519 288.76C427.715 375.036 441.138 374.466 441.138 374.466L84.9555 396.031C84.9555 396.031 23.3869 355.605 57.442 233.864C72.1029 181.453 73.0617 149.553 69.3843 130.219C62.1752 92.3034 77.4065 53.4292 109.52 31.9726C145.626 7.90827 198.905 -1.61316 270.292 51.1004Z" fill="#68E1FD"/>
<path d="M276.907 229.376C276.907 229.376 276.13 237.041 276.13 244.913V366.569H290.451L298.607 268.893L308.061 366.569H321.8C321.8 366.569 323.79 256.011 321.8 245.993C319.809 235.974 319.057 226.974 319.057 226.974L276.907 229.376Z" fill="#68E1FD"/>
<path d="M277.271 229.06C276.545 234.086 276.164 239.156 276.13 244.234V365.89H290.451L298.607 268.214L308.061 365.89H321.8C321.8 365.89 323.79 255.332 321.8 245.314C319.809 235.295 319.057 226.295 319.057 226.295L277.271 229.06Z" fill="url(#paint0_linear)"/>
<path d="M375.625 220.073L362.275 249.28L332.334 235.186L325.234 246.757L357.178 267.643C357.178 267.643 374.594 276.934 378.21 253.974C381.827 231.013 375.625 220.073 375.625 220.073Z" fill="#68E1FD"/>
<path d="M375.625 220.073L362.275 249.28L332.334 235.186L325.234 246.757L357.178 267.643C357.178 267.643 374.594 276.934 378.21 253.974C381.827 231.013 375.625 220.073 375.625 220.073Z" fill="url(#paint1_linear)"/>
<path d="M345.539 311.66C350.261 313.236 354.847 315.191 359.253 317.507C353.177 333.032 346.781 348.432 340.065 363.707C340.009 363.961 339.897 364.198 339.737 364.403C339.577 364.608 339.373 364.775 339.141 364.891C338.908 365.007 338.652 365.07 338.392 365.075C338.133 365.08 337.875 365.027 337.638 364.92C334.956 364.507 331.752 363.634 331.036 361.014C330.842 360.082 330.842 359.12 331.036 358.188C331.715 353.567 344.701 311.381 345.539 311.66Z" fill="url(#paint2_linear)"/>
<path d="M357.117 316.791C362.092 316.997 367.042 317.593 371.924 318.574C370.427 335.183 368.594 351.76 366.426 368.304C366.412 368.686 366.299 369.058 366.098 369.383C365.651 369.833 365.045 370.09 364.411 370.099C361.717 370.439 358.343 370.511 356.984 368.195C356.536 367.349 356.271 366.42 356.207 365.466C355.576 360.893 356.231 316.767 357.117 316.791Z" fill="url(#paint3_linear)"/>
<path d="M352.481 261.47C350.357 261.118 338.839 259.044 336.983 260.099C334.482 261.579 330.672 273.938 332.868 274.254C341.336 275.222 349.887 275.222 358.355 274.254C358.889 274.193 359.569 273.975 359.569 273.429C359.537 273.136 359.398 272.864 359.18 272.665C353.343 265.848 361.838 263.022 352.481 261.47Z" fill="url(#paint4_linear)"/>
<path opacity="0.27" d="M66.2775 396.601C43.9221 399.731 21.3724 402.908 0 410.089C12.4278 413.982 25.778 413.085 38.8369 412.345C187.667 403.77 338.779 418.41 484.745 388.087C489.211 387.165 494.648 385.163 495.036 380.615C495.57 374.55 487.099 372.513 480.982 372.779L369.205 377.546L376.208 372.695C335.648 372.501 295.091 373.095 254.539 374.478C240.837 374.938 229.441 379.075 216.333 381.355C200.617 384.084 183.274 382.786 167.302 384.169C133.453 387.177 99.8593 391.883 66.2775 396.601Z" fill="#68E1FD"/>
<path d="M117.664 323.28H81.7881C77.6122 323.28 74.2271 326.663 74.2271 330.837V333.25C74.2271 337.424 77.6122 340.807 81.7881 340.807H117.664C121.839 340.807 125.225 337.424 125.225 333.25V330.837C125.225 326.663 121.839 323.28 117.664 323.28Z" fill="#68E1FD"/>
<path d="M103.148 340.819H94.2642V390.731H103.148V340.819Z" fill="#68E1FD"/>
<path d="M103.148 340.819H94.2642V390.731H103.148V340.819Z" fill="url(#paint5_linear)"/>
<path d="M108.573 388.353H88.8271C86.7358 388.353 85.0405 390.048 85.0405 392.138C85.0405 394.228 86.7358 395.922 88.8271 395.922H108.573C110.665 395.922 112.36 394.228 112.36 392.138C112.36 390.048 110.665 388.353 108.573 388.353Z" fill="#68E1FD"/>
<path d="M108.573 388.353H88.8271C86.7358 388.353 85.0405 390.048 85.0405 392.138C85.0405 394.228 86.7358 395.922 88.8271 395.922H108.573C110.665 395.922 112.36 394.228 112.36 392.138C112.36 390.048 110.665 388.353 108.573 388.353Z" fill="url(#paint6_linear)"/>
<path d="M423.989 309.55H388.114C383.938 309.55 380.553 312.933 380.553 317.106V319.52C380.553 323.693 383.938 327.077 388.114 327.077H423.989C428.165 327.077 431.55 323.693 431.55 319.52V317.106C431.55 312.933 428.165 309.55 423.989 309.55Z" fill="#68E1FD"/>
<path d="M409.474 327.089H400.59V377H409.474V327.089Z" fill="#68E1FD"/>
<path d="M409.474 327.089H400.59V377H409.474V327.089Z" fill="url(#paint7_linear)"/>
<path d="M414.899 374.623H395.153C393.062 374.623 391.366 376.317 391.366 378.407C391.366 380.497 393.062 382.192 395.153 382.192H414.899C416.99 382.192 418.686 380.497 418.686 378.407C418.686 376.317 416.99 374.623 414.899 374.623Z" fill="#68E1FD"/>
<path d="M414.899 374.623H395.153C393.062 374.623 391.366 376.317 391.366 378.407C391.366 380.497 393.062 382.192 395.153 382.192H414.899C416.99 382.192 418.686 380.497 418.686 378.407C418.686 376.317 416.99 374.623 414.899 374.623Z" fill="url(#paint8_linear)"/>
<path d="M279.674 374.951C279.894 375.342 280.192 375.684 280.548 375.957C281.153 376.296 281.863 376.396 282.538 376.236C284.383 375.921 285.839 376.164 286.907 374.635C287.975 373.107 288.716 369.784 289.177 368.025C289.966 364.908 288.691 363.549 285.706 362.991C283.715 362.627 281.543 362.336 279.722 363.44C279.722 363.44 277.696 371.846 279.674 374.951Z" fill="url(#paint9_linear)"/>
<path d="M310.246 372.828C310.181 373.053 310.174 373.291 310.226 373.52C310.278 373.749 310.388 373.96 310.544 374.135C310.701 374.31 310.899 374.442 311.121 374.518C311.343 374.595 311.58 374.615 311.811 374.575C313.838 374.647 315.877 374.66 317.88 374.575C318.087 374.582 318.294 374.545 318.487 374.465C318.984 374.235 319.045 373.58 319.045 373.034V363.331C319.062 363.12 319.029 362.908 318.948 362.712C318.693 362.251 318.037 362.251 317.503 362.312C315.695 362.555 310.853 362.312 310.149 364.022C309.724 365.065 310.149 367.273 310.149 368.401C310.149 369.905 310.137 371.373 310.246 372.828Z" fill="url(#paint10_linear)"/>
<path d="M277.513 371.833C276.591 372.144 275.687 372.508 274.807 372.925L265.498 377.158C264.571 377.475 263.765 378.073 263.192 378.868C262.956 379.401 262.861 379.985 262.917 380.565C262.972 381.145 263.176 381.701 263.508 382.18C264.583 383.817 266.226 385 268.12 385.503C269.996 385.992 271.934 386.204 273.872 386.134C277.901 386.148 281.927 385.901 285.924 385.394C286.501 385.38 287.06 385.189 287.526 384.848C287.831 384.53 288.056 384.143 288.181 383.72C289.235 380.819 289.605 377.714 289.262 374.647C289.214 373.842 288.972 373.06 288.558 372.367C287.575 370.936 285.111 371.312 283.594 371.239C281.548 371.078 279.489 371.279 277.513 371.833Z" fill="#68E1FD"/>
<path d="M277.513 371.833C276.591 372.144 275.687 372.508 274.807 372.925L265.498 377.158C264.571 377.475 263.765 378.073 263.192 378.868C262.956 379.401 262.861 379.985 262.917 380.565C262.972 381.145 263.176 381.701 263.508 382.18C264.583 383.817 266.226 385 268.12 385.503C269.996 385.992 271.934 386.204 273.872 386.134C277.901 386.148 281.927 385.901 285.924 385.394C286.501 385.38 287.06 385.189 287.526 384.848C287.831 384.53 288.056 384.143 288.181 383.72C289.235 380.819 289.605 377.714 289.262 374.647C289.214 373.842 288.972 373.06 288.558 372.367C287.575 370.936 285.111 371.312 283.594 371.239C281.548 371.078 279.489 371.279 277.513 371.833Z" fill="url(#paint11_linear)"/>
<path d="M310.561 373.034C309.416 373.102 308.299 373.421 307.29 373.968C306.281 374.515 305.405 375.277 304.724 376.2C303.923 377.767 303.582 379.529 303.741 381.282C303.741 382.604 303.826 383.914 303.886 385.236C303.832 385.958 304.063 386.672 304.529 387.225C305.069 387.605 305.732 387.77 306.386 387.686C311.856 387.626 317.27 386.583 322.37 384.605C322.581 384.549 322.766 384.42 322.892 384.242C322.959 384.085 322.984 383.914 322.965 383.744C322.892 381.549 322.734 379.354 322.479 377.17C322.431 376.472 322.262 375.786 321.982 375.145C320.088 371.397 313.765 372.61 310.561 373.034Z" fill="#68E1FD"/>
<path d="M310.561 373.034C309.416 373.102 308.299 373.421 307.29 373.968C306.281 374.515 305.405 375.277 304.724 376.2C303.923 377.767 303.582 379.529 303.741 381.282C303.741 382.604 303.826 383.914 303.886 385.236C303.832 385.958 304.063 386.672 304.529 387.225C305.069 387.605 305.732 387.77 306.386 387.686C311.856 387.626 317.27 386.583 322.37 384.605C322.581 384.549 322.766 384.42 322.892 384.242C322.959 384.085 322.984 383.914 322.965 383.744C322.892 381.549 322.734 379.354 322.479 377.17C322.431 376.472 322.262 375.786 321.982 375.145C320.088 371.397 313.765 372.61 310.561 373.034Z" fill="url(#paint12_linear)"/>
<path opacity="0.4" d="M274.176 0H25.5229V187.312H274.176V0Z" fill="#68E1FD"/>
<path d="M247.451 168.317C234.538 159.026 234.356 148.013 221.698 138.382C218.46 140.559 215.458 143.067 212.741 145.866C212.156 146.366 211.733 147.029 211.527 147.77C211.455 148.648 211.673 149.526 212.146 150.269C217.499 160.906 224.051 170.896 231.674 180.046C233.218 182.082 235.093 183.845 237.22 185.262C240.643 187.312 244.854 187.591 248.835 187.251C259.74 186.358 270.351 183.263 280.026 178.154C280.863 177.729 282.137 174.976 282.659 174.2C284.371 171.653 292.369 155.824 288.995 154.696C285.621 153.568 248.568 169.13 247.451 168.317Z" fill="#68E1FD"/>
<path d="M220.46 139.28L221.746 138.382C221.817 139.877 221.662 141.373 221.285 142.822C220.715 144.034 219.173 148.498 211.576 148.437C211.552 148.437 210.569 146.388 220.46 139.28Z" fill="black"/>
<path opacity="0.4" d="M255.716 118.733H43.4366C41.4526 118.733 39.8442 120.34 39.8442 122.323C39.8442 124.306 41.4526 125.913 43.4366 125.913H255.716C257.701 125.913 259.309 124.306 259.309 122.323C259.309 120.34 257.701 118.733 255.716 118.733Z" fill="#68E1FD"/>
<path opacity="0.4" d="M255.716 132.403H43.4366C41.4526 132.403 39.8442 134.01 39.8442 135.993C39.8442 137.976 41.4526 139.583 43.4366 139.583H255.716C257.701 139.583 259.309 137.976 259.309 135.993C259.309 134.01 257.701 132.403 255.716 132.403Z" fill="#68E1FD"/>
<path d="M277.04 161.234C279.589 157.28 284.407 155.424 289.043 154.635C293.679 153.847 295.111 151.3 303.607 151.288C311.12 151.288 312.236 155.933 314.627 160.288C317.018 164.642 317.637 169.712 318.134 174.661C319.623 189.345 320.432 204.086 320.562 218.884C320.562 221.674 320.562 224.621 319.057 226.974C317.03 230.188 312.989 231.377 309.263 232.081C302.696 233.326 296.017 233.879 289.335 233.73C286.492 233.809 283.662 233.323 281.009 232.299C276.907 230.455 274.127 226.404 272.792 222.11C271.665 217.757 271.199 213.26 271.409 208.768C271.409 197.868 271.781 186.972 272.525 176.08C272.819 170.841 274.367 165.75 277.04 161.234Z" fill="#68E1FD"/>
<path d="M277.04 161.234C279.589 157.28 284.407 155.424 289.043 154.635C293.679 153.847 295.111 151.3 303.607 151.288C311.12 151.288 312.236 155.933 314.627 160.288C317.018 164.642 317.637 169.712 318.134 174.661C319.623 189.345 320.432 204.086 320.562 218.884C320.562 221.674 320.562 224.621 319.057 226.974C317.03 230.188 312.989 231.377 309.263 232.081C302.696 233.326 296.017 233.879 289.335 233.73C286.492 233.809 283.662 233.323 281.009 232.299C276.907 230.455 274.127 226.404 272.792 222.11C271.665 217.757 271.199 213.26 271.409 208.768C271.409 197.868 271.781 186.972 272.525 176.08C272.819 170.841 274.367 165.75 277.04 161.234Z" fill="url(#paint13_linear)"/>
<path d="M147.968 369.493L144.922 382.143L135.795 380.882V368.813L147.968 369.493Z" fill="url(#paint14_linear)"/>
<path d="M135.795 380.882L131.681 390.731L149.34 395.946H162.823C162.823 395.946 161.391 388.96 156.379 388.438C151.367 387.917 144.922 382.18 144.922 382.18L135.795 380.882Z" fill="#68E1FD"/>
<path d="M175.895 367.916L178.213 382.143L185.919 379.814V366.581L175.895 367.916Z" fill="url(#paint15_linear)"/>
<path d="M178.273 382.143V392.878L200.969 388.402L208.53 382.143C208.53 382.143 205.957 375.521 199.342 377.85C192.728 380.178 187.861 380.53 186.915 379.814C185.968 379.099 184.087 379.814 184.087 379.814L178.273 382.143Z" fill="#68E1FD"/>
<path d="M135.795 380.882L131.681 390.731L149.34 395.946H162.823C162.823 395.946 161.391 388.96 156.379 388.438C151.367 387.917 144.922 382.18 144.922 382.18L135.795 380.882Z" fill="url(#paint16_linear)"/>
<path d="M178.273 382.143V392.878L200.969 388.402L208.53 382.143C208.53 382.143 205.957 375.521 199.342 377.85C192.728 380.178 187.861 380.53 186.915 379.814C185.968 379.099 184.087 379.814 184.087 379.814L178.273 382.143Z" fill="url(#paint17_linear)"/>
<path d="M134.497 214.687L155.833 255.648L184.961 261.336L185.774 270.542L154.522 274.254C154.522 274.254 150.541 275.94 143.32 266.746C139.121 261.409 133.295 250.638 133.295 250.638L134.497 214.687Z" fill="#68E1FD"/>
<path d="M185.762 270.542L154.51 274.254C154.51 274.254 150.529 275.94 143.308 266.746C139.109 261.409 133.283 250.638 133.283 250.638L134.497 214.687L137.3 220.073L155.833 255.648L184.961 261.336L185.422 267.559L185.762 270.542Z" fill="url(#paint18_linear)"/>
<path d="M185.41 267.558H157.738C157.738 267.558 153.758 269.244 146.524 260.05C142.337 254.714 136.5 243.943 136.5 243.943L137.301 220.073L155.833 255.648L184.961 261.336L185.41 267.558Z" fill="url(#paint19_linear)"/>
<path d="M378.21 216.106C378.125 216.507 379.849 215.403 380.14 215.682C380.404 215.898 380.724 216.033 381.063 216.07L383.49 216.579C385.068 217.042 386.736 217.104 388.344 216.761C389.502 216.311 390.498 215.526 391.205 214.506C391.913 213.486 392.298 212.277 392.313 211.036C392.29 208.549 391.497 206.13 390.044 204.111C389.543 203.178 388.79 202.405 387.871 201.879C387.044 201.559 386.159 201.418 385.274 201.466C382.847 201.466 375.82 201.83 377.118 204.535C378.684 208.183 379.066 212.23 378.21 216.106Z" fill="url(#paint20_linear)"/>
<path opacity="0.4" d="M259.309 21.6506H39.8442V107.526H259.309V21.6506Z" fill="#68E1FD"/>
<path opacity="0.8" d="M249.114 42.5735H190.932V45.618H249.114V42.5735Z" fill="#68E1FD"/>
<path opacity="0.8" d="M249.114 63.0598H190.932V66.1043H249.114V63.0598Z" fill="#68E1FD"/>
<path opacity="0.8" d="M249.114 68.1662H190.932V71.2106H249.114V68.1662Z" fill="#68E1FD"/>
<path opacity="0.8" d="M232.645 47.9468H190.932V50.9913H232.645V47.9468Z" fill="#68E1FD"/>
<path d="M61.3138 37.9281H56.6655V88.0218H61.3138V37.9281Z" fill="white"/>
<path d="M70.4403 55.285H65.792V88.0217H70.4403V55.285Z" fill="white"/>
<path d="M79.3973 50.9913H74.749V88.0218H79.3973V50.9913Z" fill="white"/>
<path d="M88.5238 56.1583H83.8755V88.0218H88.5238V56.1583Z" fill="white"/>
<g opacity="0.8">
<path opacity="0.8" d="M88.5239 69.9128C88.2502 69.9112 87.985 69.8172 87.7715 69.646L77.0185 61.1555L69.1905 67.8751L55.6947 50.2635C55.5974 50.1368 55.5261 49.9923 55.4848 49.8381C55.4435 49.684 55.4329 49.5232 55.4538 49.3649C55.4959 49.0453 55.6633 48.7556 55.9192 48.5593C56.1751 48.3631 56.4985 48.2765 56.8183 48.3186C57.1381 48.3607 57.428 48.528 57.6244 48.7837L69.5546 64.4062L76.9457 58.0626L89.2764 67.7659C89.4769 67.9214 89.6235 68.1358 89.6958 68.3789C89.768 68.6219 89.7622 68.8815 89.6791 69.1212C89.5961 69.3608 89.44 69.5684 89.2328 69.7147C89.0256 69.8611 88.7777 69.9388 88.5239 69.9371V69.9128Z" fill="#68E1FD"/>
</g>
<path opacity="0.8" d="M180.361 65.3643C180.361 71.2614 178.611 77.0261 175.333 81.9292C172.054 86.8323 167.394 90.6535 161.943 92.9097C156.491 95.1659 150.492 95.7556 144.705 94.6042C138.918 93.4529 133.602 90.6122 129.431 86.4415C125.259 82.2708 122.419 76.9573 121.269 71.1733C120.12 65.3892 120.712 59.3943 122.972 53.9468C125.232 48.4992 129.057 43.8438 133.965 40.5693C138.872 37.2948 144.641 35.5483 150.541 35.5507V65.3643H180.361Z" fill="#68E1FD"/>
<path opacity="0.8" d="M184.341 60.5248H154.51V30.7112C158.428 30.7096 162.308 31.4797 165.928 32.9774C169.548 34.4751 172.837 36.6711 175.607 39.4398C178.378 42.2086 180.575 45.4959 182.074 49.1137C183.572 52.7316 184.343 56.6092 184.341 60.5248Z" fill="#68E1FD"/>
<path opacity="0.4" d="M99.7621 152.913H2.34229V240.341H99.7621V152.913Z" fill="#68E1FD"/>
<path d="M372.445 274.266H154.51V288.651H372.445V274.266Z" fill="#68E1FD"/>
<path d="M372.445 274.266H154.51V288.651H372.445V274.266Z" fill="url(#paint21_linear)"/>
<path d="M372.445 283.387H154.51V288.651H372.445V283.387Z" fill="url(#paint22_linear)"/>
<path d="M309.967 153.144C319.021 161.962 332.529 173.242 338.366 184.461C339.677 186.984 340.794 189.762 340.466 192.576C339.883 197.148 335.611 200.241 331.533 202.412C325.155 205.634 318.571 208.43 311.824 210.782C311.232 211.083 310.552 211.165 309.906 211.012C309.363 210.717 308.935 210.247 308.692 209.678C306.72 206.167 304.942 202.551 303.365 198.846C303.133 198.434 303.043 197.957 303.11 197.488C303.314 196.999 303.696 196.605 304.178 196.384C309.481 193.267 316.314 192.418 320.259 187.651C316.849 186.118 313.788 183.905 311.265 181.148C308.742 178.391 306.809 175.147 305.586 171.616C302.782 163.368 302.831 156.406 309.967 153.144Z" fill="#68E1FD"/>
<path d="M309.967 153.144C319.021 161.962 332.529 173.242 338.366 184.461C339.677 186.984 340.794 189.762 340.466 192.576C339.883 197.148 335.611 200.241 331.533 202.412C325.155 205.634 318.571 208.43 311.824 210.782C311.232 211.083 310.552 211.165 309.906 211.012C309.363 210.717 308.935 210.247 308.692 209.678C306.72 206.167 304.942 202.551 303.365 198.846C303.133 198.434 303.043 197.957 303.11 197.488C303.314 196.999 303.696 196.605 304.178 196.384C309.481 193.267 316.314 192.418 320.259 187.651C316.849 186.118 313.788 183.905 311.265 181.148C308.742 178.391 306.809 175.147 305.586 171.616C302.782 163.368 302.831 156.406 309.967 153.144Z" fill="url(#paint23_linear)"/>
<path d="M303.097 197.488C303.097 197.488 307.066 198.325 308.352 201.479C309.639 204.632 309.906 211.012 309.906 211.012C309.906 211.012 307.612 211.194 307.127 209.241C306.641 207.288 301.277 200.751 303.097 197.488Z" fill="black"/>
<path d="M220.023 145.126C219.694 145.617 219.264 146.033 218.762 146.344C218.259 146.656 217.696 146.857 217.11 146.933C215.302 147.067 213.809 145.636 212.571 144.313C209.864 141.402 207.073 138.394 205.665 134.671C205.172 133.3 204.787 131.893 204.512 130.462C203.893 128.168 203.691 125.781 203.918 123.415C204.257 121.074 207.012 116.004 210.75 116.004C210.969 116.004 213.821 123.209 214.051 123.548L216.758 127.308C217.858 126.332 218.75 125.144 219.379 123.815C220.107 124.83 220.423 126.082 220.265 127.32C220.18 128.533 219.816 129.746 219.61 130.959C219.179 133.48 219.362 136.068 220.144 138.504C220.46 139.51 221.418 140.76 221.467 141.803C221.297 143.021 220.797 144.17 220.023 145.126Z" fill="url(#paint24_linear)"/>
<path d="M298.789 199.053C298.389 198.97 297.975 198.97 297.575 199.053C297.377 199.101 297.194 199.199 297.043 199.336C296.893 199.474 296.779 199.648 296.713 199.841C296.531 200.508 297.126 201.054 297.599 201.6C297.706 201.69 297.779 201.814 297.806 201.952C297.806 202.243 297.478 202.4 297.199 202.473L290.475 204.183C290.235 204.218 290.011 204.324 289.832 204.487C289.721 204.624 289.646 204.786 289.614 204.96C289.434 205.616 289.405 206.304 289.529 206.973C289.589 207.106 289.62 207.251 289.62 207.398C289.62 207.544 289.589 207.689 289.529 207.822C289.432 207.968 289.25 208.028 289.128 208.15C288.955 208.361 288.85 208.62 288.824 208.892C288.798 209.164 288.853 209.437 288.983 209.678C289.457 210.912 290.3 211.97 291.396 212.71C292.492 213.449 293.789 213.835 295.111 213.814C296.522 213.665 297.909 213.339 299.238 212.844C300.217 212.558 301.215 212.339 302.223 212.189C303.716 211.958 305.391 211.8 306.411 210.672C307.43 209.544 309.663 207.907 309.651 207.228C309.651 206.172 308.656 200.993 307.806 200.363C306.203 200.408 304.599 200.278 303.024 199.974C301.654 199.5 300.232 199.191 298.789 199.053Z" fill="url(#paint25_linear)"/>
<path d="M112.833 202.679C109.593 206.585 100.782 217.234 99.6892 222.147C96.1049 238.319 92.5327 254.491 88.9727 270.664C87.9796 274.426 87.4458 278.295 87.3828 282.186C87.6741 294.825 99.3858 306.081 112.032 305.875C116.287 305.862 120.436 304.541 123.914 302.09C128.319 298.852 130.977 293.782 133.089 288.748C136.002 281.81 131.875 276.862 133.708 269.584C136.791 257.297 140.929 234.628 137.349 222.462C129.205 194.48 112.833 202.679 112.833 202.679Z" fill="#68E1FD"/>
<path d="M112.833 202.679C109.593 206.585 100.782 217.234 99.6892 222.147C96.1049 238.319 92.5327 254.491 88.9727 270.664C87.9796 274.426 87.4458 278.295 87.3828 282.186C87.6741 294.825 99.3858 306.081 112.032 305.875C116.287 305.862 120.436 304.541 123.914 302.09C128.319 298.852 130.977 293.782 133.089 288.748C136.002 281.81 131.875 276.862 133.708 269.584C136.791 257.297 141.184 237.818 138.077 225.531C134.97 213.244 125.941 186.826 112.833 202.679Z" fill="url(#paint26_linear)"/>
<path d="M131.402 195.499C130.504 199.635 128.526 205.396 130.055 210.879C130.674 213.086 117.069 207.41 115.248 204.329C113.051 200.629 119.812 200.266 115.018 191.351C112.979 187.554 126.523 195.559 130.795 196.202" fill="url(#paint27_linear)"/>
<path d="M194.318 261.627C195.802 261.443 197.309 261.635 198.699 262.185C199.99 262.953 201.012 264.101 201.624 265.472C202.784 267.517 203.212 269.896 202.838 272.216C202.78 272.648 202.589 273.051 202.291 273.368C201.77 273.737 201.125 273.885 200.495 273.781L193.493 273.562C191.772 273.67 190.056 273.292 188.541 272.471C187.582 271.828 186.83 270.809 185.701 270.542C184.961 270.427 184.205 270.465 183.48 270.651C182.024 270.882 180.542 270.882 179.086 270.651C178.709 270.628 178.35 270.479 178.067 270.227C177.868 269.955 177.754 269.63 177.739 269.293C177.315 266.115 177.545 263.107 180.846 262.246C184.936 261.179 190.143 261.809 194.318 261.627Z" fill="url(#paint28_linear)"/>
<path d="M104.617 213.195C104.617 213.195 85.1257 242.863 85.6597 250.917C86.1937 258.971 126.56 279.603 126.56 279.603L132.713 270.288L111.146 246.89L121.96 224.609C121.96 224.609 122.628 204.305 104.617 213.195Z" fill="#68E1FD"/>
<path d="M128.975 276.461L126.548 279.603C126.548 279.603 86.1936 258.983 85.6475 250.917C85.1013 242.851 104.605 213.195 104.605 213.195C109.654 210.709 111.887 211.109 114.569 211.982C113.355 214.02 96.6553 241.177 97.165 248.916C97.5534 254.738 117.591 268.881 128.975 276.461Z" fill="url(#paint29_linear)"/>
<path d="M128.623 270.736C127.516 271.171 126.586 271.964 125.983 272.989C125.381 274.013 125.139 275.21 125.297 276.389C125.734 277.908 126.607 279.267 127.81 280.294C129.34 281.814 131.01 283.187 132.798 284.394C133.624 285.008 134.559 285.461 135.553 285.728C139.072 286.529 142.228 283.302 145.808 282.878C146.462 282.864 147.111 282.762 147.738 282.574C148.352 282.257 148.837 281.737 149.111 281.102C149.386 280.468 149.432 279.758 149.243 279.093C148.806 277.77 147.899 276.653 146.694 275.952C145.302 275.041 143.713 274.476 142.058 274.302C140.675 274.304 139.298 274.137 137.956 273.805C136.342 273.223 135.71 271.658 134.157 270.979C132.416 270.173 130.427 270.085 128.623 270.736Z" fill="url(#paint30_linear)"/>
<path d="M88.5237 288.651C88.5237 288.651 80.2709 309.829 85.6474 318.319C91.0238 326.81 133.283 334.354 133.283 334.354L132.616 372.743L150.226 374.344L155.214 327.792C155.214 327.792 155.699 322.734 148.235 319.156C148.235 319.156 160.906 322.916 163.77 332.219C166.634 341.522 174.377 372.755 174.377 372.755L188.213 368.801C188.213 368.801 185.907 318.804 177.703 309.15C169.499 299.495 133.15 288.773 133.15 288.773L88.5237 288.651Z" fill="#68E1FD"/>
<path d="M188.153 368.801L174.317 372.755L174.183 372.197C174.183 372.015 174.074 371.797 174.014 371.53C174.024 371.486 174.024 371.441 174.014 371.397C173.941 371.094 173.856 370.73 173.747 370.317C173.637 369.905 173.504 369.371 173.37 368.825C171.198 360.141 165.979 339.485 163.746 332.219C161.319 324.214 151.549 320.308 148.891 319.387H148.757L148.357 319.253H148.248C155.675 322.831 155.19 327.877 155.19 327.877L150.262 374.441L132.652 372.84L133.32 334.451C133.32 334.451 91.0362 326.81 85.6476 318.319C80.2589 309.829 88.5239 288.639 88.5239 288.639L117.652 288.712H133.15C134.254 289.039 169.559 299.555 177.679 309.077C185.798 318.598 188.153 368.801 188.153 368.801Z" fill="url(#paint31_linear)"/>
<path d="M363.622 185.092C363.022 185.588 362.562 186.232 362.287 186.96C361.996 188.233 363.198 189.301 363.926 190.405C365.771 193.218 364.605 197.173 366.147 200.169C367.688 203.164 371.426 204.28 374.752 205.02C376.399 205.495 378.111 205.708 379.825 205.651C385.043 205.19 388.405 200.047 390.747 195.365C392.362 192.151 393.915 188.803 394.146 185.213C394.401 181.295 393.066 177.45 391.561 173.824C390.883 171.788 389.702 169.956 388.126 168.499C386.117 167.177 383.745 166.515 381.342 166.607C377.337 166.461 372.992 167.031 370.103 169.797C365.783 173.982 367.421 180.992 363.622 185.092Z" fill="url(#paint32_linear)"/>
<path d="M379.375 214.602C374.521 218.605 374.375 224.924 374.521 230.564C374.933 245.871 375.455 261.603 382.773 275.685C385.104 280.185 388.405 284.685 393.696 286.892C396.933 288.095 400.365 288.688 403.818 288.639C411.343 288.772 419.365 287.22 424.45 282.684C431.429 276.534 431.089 266.916 429.026 258.728C425.919 245.993 403.879 194.286 379.375 214.602Z" fill="#68E1FD"/>
<path d="M379.375 214.602C374.521 218.605 374.375 224.924 374.521 230.564C374.933 245.871 375.455 261.603 382.773 275.685C385.104 280.185 388.405 284.685 393.696 286.892C396.933 288.095 400.365 288.688 403.818 288.639C411.343 288.772 419.365 287.22 424.45 282.684C431.429 276.534 431.089 266.916 429.026 258.728C425.919 245.993 403.879 194.286 379.375 214.602Z" fill="url(#paint33_linear)"/>
<path d="M383.902 209.241L376.499 213.22L376.001 219.114L380.14 215.682L384.655 218.447L394.194 210.272L392.786 206.439L383.902 209.241Z" fill="#68E1FD"/>
<path d="M383.902 209.241L376.499 213.22L376.001 219.114L380.14 215.682L384.655 218.447L394.194 210.272L392.786 206.439L383.902 209.241Z" fill="url(#paint34_linear)"/>
<path d="M381.839 230.989C381.852 227.521 383.069 224.166 385.283 221.496C387.496 218.826 390.569 217.006 393.975 216.349C397.993 215.645 402.071 216.094 404.607 219.466C409 225.312 401.986 247.691 397.082 261.348C395.881 264.676 393.762 267.596 390.97 269.77C388.178 271.944 384.827 273.284 381.305 273.635C378.077 273.963 374.812 274.205 372.409 274.205C365.6 274.205 351.097 273.89 351.097 273.89L352.068 257.673C352.068 257.673 373.598 258.886 378.21 254.034C381.026 251.087 381.718 239.589 381.839 230.989Z" fill="#68E1FD"/>
<path d="M417.472 313.528C408.187 321.424 394.255 318.028 382.118 319.12C373.331 319.92 379.29 327.683 372.409 333.238C366.341 324.626 352.541 320.721 344.301 314.147C349.847 300.526 361.838 289.294 376.572 286.371C383.854 284.927 391.281 284.915 398.66 284.746C402.762 284.649 406.865 284.588 410.955 284.2C413.71 283.933 419.669 281.58 422.132 282.259C431.004 284.697 423.127 308.725 417.472 313.528Z" fill="#68E1FD"/>
<path d="M417.472 313.528C408.187 321.424 394.255 318.028 382.118 319.12C373.331 319.92 379.29 327.683 372.409 333.238C366.341 324.626 352.541 320.721 344.301 314.147C349.847 300.526 361.838 289.294 376.572 286.371C383.854 284.927 391.281 284.915 398.66 284.746C402.762 284.649 406.865 284.588 410.955 284.2C413.71 283.933 419.669 281.58 422.132 282.259C431.004 284.697 423.127 308.725 417.472 313.528Z" fill="url(#paint35_linear)"/>
<path d="M328.268 363.84C328.453 362.631 328.775 361.447 329.227 360.311C329.697 359.285 330.341 358.349 331.133 357.545C333.875 359.267 336.792 360.694 339.834 361.803C340.15 361.924 340.514 362.082 340.599 362.385C340.628 362.576 340.594 362.772 340.502 362.943C339.47 365.611 338.317 368.219 337.055 370.79C336.922 371.069 336.74 371.373 336.436 371.433C336.213 371.457 335.988 371.41 335.793 371.3C333.633 370.378 330.829 369.553 328.948 368.195C327.067 366.836 327.88 365.817 328.268 363.84Z" fill="black"/>
<path d="M316.52 364.41C315.742 364.092 314.926 363.872 314.093 363.755C313.323 363.749 312.562 363.931 311.879 364.286C311.195 364.641 310.61 365.159 310.173 365.793C309.307 367.068 308.659 368.478 308.255 369.966C307.942 370.678 307.844 371.467 307.976 372.234C308.362 373.163 309.08 373.915 309.991 374.344C314.577 377.181 319.308 379.777 324.166 382.119C326.502 383.458 329.133 384.2 331.824 384.278C332.332 384.285 332.831 384.142 333.256 383.866C333.544 383.607 333.782 383.299 333.96 382.956C335.418 380.36 336.614 377.626 337.528 374.793C337.9 374.123 338.005 373.337 337.823 372.593C337.641 371.849 337.185 371.201 336.545 370.778C334.118 368.449 331.12 366.121 327.71 365.538C324.045 364.896 320.161 365.623 316.52 364.41Z" fill="#68E1FD"/>
<path d="M356.134 371.979C355.962 370.774 355.917 369.554 356 368.34C356.132 367.246 356.452 366.183 356.947 365.199C359.859 366.121 362.862 366.727 365.904 367.006C366.231 367.006 366.596 367.091 366.753 367.37C366.832 367.545 366.857 367.739 366.826 367.928C366.656 370.754 366.353 373.568 365.94 376.418C365.942 376.568 365.908 376.716 365.843 376.85C365.778 376.985 365.682 377.103 365.564 377.195C365.367 377.262 365.154 377.262 364.957 377.195C362.773 376.879 360.018 376.806 357.966 375.982C355.915 375.157 356.352 373.98 356.134 371.979Z" fill="black"/>
<path d="M345.078 375.593C344.271 375.499 343.457 375.499 342.65 375.593C341.909 375.803 341.23 376.191 340.673 376.724C340.117 377.257 339.7 377.918 339.459 378.65C338.992 380.116 338.767 381.648 338.791 383.186C338.688 383.626 338.684 384.083 338.781 384.524C338.877 384.965 339.07 385.379 339.347 385.736C339.624 386.093 339.977 386.384 340.38 386.587C340.784 386.79 341.228 386.9 341.68 386.91C346.873 388.352 352.14 389.518 357.457 390.403C360.076 391.041 362.812 391.016 365.419 390.33C365.891 390.19 366.312 389.917 366.632 389.542C366.842 389.218 366.982 388.855 367.045 388.475C367.728 385.574 368.11 382.611 368.186 379.632C368.295 378.794 368.129 377.943 367.712 377.207C367.292 376.681 366.75 376.265 366.135 375.994C363.113 374.453 359.605 373.046 356.183 373.434C352.432 373.956 348.901 375.727 345.078 375.593Z" fill="#68E1FD"/>
<path d="M316.52 364.41C315.742 364.092 314.926 363.872 314.093 363.755C313.323 363.749 312.562 363.931 311.879 364.286C311.195 364.641 310.61 365.159 310.173 365.793C309.307 367.068 308.659 368.478 308.255 369.966C307.942 370.678 307.844 371.467 307.976 372.234C308.362 373.163 309.08 373.915 309.991 374.344C314.577 377.181 319.308 379.777 324.166 382.119C326.502 383.458 329.133 384.2 331.824 384.278C332.332 384.285 332.831 384.142 333.256 383.866C333.544 383.607 333.782 383.299 333.96 382.956C335.418 380.36 336.614 377.626 337.528 374.793C337.9 374.123 338.005 373.337 337.823 372.593C337.641 371.849 337.185 371.201 336.545 370.778C334.118 368.449 331.12 366.121 327.71 365.538C324.045 364.896 320.161 365.623 316.52 364.41Z" fill="url(#paint36_linear)"/>
<path d="M345.078 375.593C344.271 375.499 343.457 375.499 342.65 375.593C341.909 375.803 341.23 376.191 340.673 376.724C340.117 377.257 339.7 377.918 339.459 378.65C338.992 380.116 338.767 381.648 338.791 383.186C338.688 383.626 338.684 384.083 338.781 384.524C338.877 384.965 339.07 385.379 339.347 385.736C339.624 386.093 339.977 386.384 340.38 386.587C340.784 386.79 341.228 386.9 341.68 386.91C346.873 388.352 352.14 389.518 357.457 390.403C360.076 391.041 362.812 391.016 365.419 390.33C365.891 390.19 366.312 389.917 366.632 389.542C366.842 389.218 366.982 388.855 367.045 388.475C367.728 385.574 368.11 382.611 368.186 379.632C368.295 378.794 368.129 377.943 367.712 377.207C367.292 376.681 366.75 376.265 366.135 375.994C363.113 374.453 359.605 373.046 356.183 373.434C352.432 373.956 348.901 375.727 345.078 375.593Z" fill="url(#paint37_linear)"/>
<path d="M143.587 178.057C145.493 182.545 146.427 187.906 144.073 192.163C142.573 194.683 140.262 196.619 137.519 197.658C134.846 198.829 131.939 199.369 129.023 199.235C121.984 198.665 114.265 189.434 113.076 186.365C112.175 184.311 111.555 182.145 111.231 179.925C111.033 177.711 111.407 175.484 112.316 173.456C113.226 171.428 114.641 169.667 116.426 168.341C121.28 164.8 127.773 165.091 133.49 164.521C137.264 164.145 137.568 165.576 139.036 168.778C140.505 171.98 142.24 174.879 143.587 178.057Z" fill="url(#paint38_linear)"/>
<path d="M129.108 170.755C126.993 171.027 124.908 171.498 122.882 172.162C121.871 172.509 120.967 173.109 120.255 173.906C119.543 174.702 119.048 175.668 118.816 176.711C118.525 178.918 119.933 181.186 119.266 183.309L115.625 179.561C114.745 180.053 114.019 180.78 113.528 181.661C113.038 182.541 112.802 183.541 112.848 184.547C112.893 185.554 113.218 186.528 113.785 187.361C114.353 188.194 115.141 188.853 116.061 189.264C116.583 189.495 117.202 189.713 117.397 190.247C117.49 190.655 117.443 191.082 117.263 191.46L115.467 196.687C109.357 190.394 105.216 182.457 103.549 173.848C103.143 172.215 103.105 170.512 103.44 168.863C103.62 168.042 104.02 167.286 104.597 166.675C105.174 166.064 105.907 165.621 106.716 165.394C107.492 165.364 108.258 165.213 108.986 164.945C109.482 164.603 109.897 164.156 110.2 163.635C113.1 159.426 118.04 156.976 123.064 156.018C127.142 155.23 137.458 153.592 140.055 158.262C143.611 164.545 133.829 169.809 129.108 170.755Z" fill="black"/>
<path d="M298.583 152.44C298.695 153.884 298.466 155.334 297.915 156.673C296.762 158.966 293.934 159.887 291.373 159.997C290.77 160.086 290.154 160.047 289.566 159.882C288.978 159.717 288.432 159.429 287.963 159.038C287.354 158.256 287.01 157.3 286.98 156.309C286.859 155.278 286.774 154.235 286.725 153.204C286.666 152.572 286.699 151.935 286.822 151.312C287.031 150.548 287.385 149.831 287.866 149.202C289.856 146.448 292.796 144.529 296.119 143.816C298.097 143.392 298.546 143.901 298.546 145.83C298.631 148.037 298.583 150.233 298.583 152.44Z" fill="url(#paint39_linear)"/>
<path d="M302.139 127.891C302.551 126.717 303.252 125.666 304.178 124.834C304.334 124.684 304.543 124.601 304.76 124.604C304.968 124.641 305.156 124.748 305.294 124.907C306.445 125.979 307.195 127.413 307.418 128.97C307.52 129.744 307.454 130.531 307.226 131.278C306.998 132.025 306.612 132.715 306.095 133.3C305.632 133.855 304.979 134.219 304.263 134.319C303.758 134.313 303.264 134.168 302.836 133.901C302.408 133.633 302.062 133.254 301.835 132.803C301.402 131.88 301.174 130.875 301.168 129.855C301.107 128.752 301.168 127.43 302.187 126.872" fill="url(#paint40_linear)"/>
<path d="M269.952 144.871C271.181 147.84 273.269 150.374 275.948 152.149C278.386 153.399 281.097 154.021 283.837 153.956C287.18 154.152 290.52 153.532 293.57 152.149C297.248 150.137 300.063 146.85 301.483 142.907C302.868 139.014 303.562 134.909 303.534 130.777C303.643 126.12 303.255 121.219 300.694 117.338C299.234 115.314 297.337 113.645 295.144 112.452C292.95 111.26 290.517 110.575 288.024 110.449C280.985 109.915 267.95 113.19 265.778 121.159C264.976 124.106 265.899 127.478 266.251 130.426C266.674 135.413 267.925 140.295 269.952 144.871Z" fill="url(#paint41_linear)"/>
<path d="M261.19 121.025C261.574 123.357 262.562 125.548 264.054 127.381C265.062 126.168 265.086 124.482 265.365 122.942C265.686 121.124 266.407 119.401 267.477 117.896C267.735 117.464 268.127 117.128 268.593 116.938C268.961 116.905 269.331 116.945 269.683 117.055C270.035 117.165 270.362 117.344 270.644 117.581C272.525 118.699 274.698 119.227 276.883 119.097C277.938 119.072 278.967 118.757 279.856 118.187C280.446 117.701 281.005 117.178 281.531 116.622C283.958 114.451 287.696 114.524 290.791 115.555C292.36 115.992 293.777 116.857 294.881 118.054C296.01 119.412 296.471 121.256 297.672 122.542C298.388 123.294 299.359 123.9 299.651 124.895C299.748 125.493 299.748 126.103 299.651 126.702C299.532 128.197 299.804 129.698 300.44 131.056C301.52 129.71 301.325 127.709 302.224 126.205C302.903 125.077 304.141 124.397 304.894 123.318C305.741 121.732 305.995 119.895 305.61 118.139C305.276 115.23 304.704 112.354 303.898 109.539C303.608 108.394 303.176 107.29 302.612 106.252C301.7 104.842 300.487 103.65 299.06 102.763C297.634 101.876 296.028 101.316 294.359 101.121C291.016 100.767 287.637 100.968 284.359 101.716C280.468 102.259 276.686 103.401 273.144 105.1C271.377 105.959 269.8 107.165 268.509 108.647C267.219 110.129 266.24 111.855 265.632 113.724C265.074 115.749 264.163 115.422 262.768 116.695C262.206 117.259 261.774 117.939 261.502 118.687C261.229 119.434 261.123 120.232 261.19 121.025Z" fill="black"/>
<path d="M115.722 199.78L112.833 202.679C112.833 202.679 117.688 210.539 124.97 212.589C132.252 214.639 130.092 210.879 130.092 210.879C130.092 210.879 120.273 208.574 118.987 204.814C118.445 202.839 117.304 201.081 115.722 199.78Z" fill="#68E1FD"/>
<path d="M115.722 199.78L112.833 202.679C112.833 202.679 117.688 210.539 124.97 212.589C132.252 214.639 130.092 210.879 130.092 210.879C130.092 210.879 120.273 208.574 118.987 204.814C118.445 202.839 117.304 201.081 115.722 199.78Z" fill="url(#paint42_linear)"/>
<path d="M188.152 368.801L174.317 372.755L174.183 372.197C174.183 372.015 174.086 371.797 174.013 371.53C174.024 371.486 174.024 371.441 174.013 371.397C173.94 371.094 173.856 370.73 173.746 370.317C173.637 369.905 173.504 369.371 173.37 368.825C171.198 360.141 165.979 339.485 163.746 332.219C161.319 324.214 151.549 320.309 148.891 319.387H148.757L148.357 319.253H148.247L139.206 312.922C139.206 312.922 117.663 297.154 119.363 289.015L133.162 288.87C134.266 289.197 169.571 299.713 177.691 309.235C185.81 318.756 188.152 368.801 188.152 368.801Z" fill="url(#paint43_linear)"/>
<path d="M175.895 288.651H165.688V401.999H175.895V288.651Z" fill="#68E1FD"/>
<path d="M175.895 288.651H165.688V401.999H175.895V288.651Z" fill="url(#paint44_linear)"/>
<path d="M357.178 288.651H346.971V401.999H357.178V288.651Z" fill="#68E1FD"/>
<path d="M357.178 288.651H346.971V401.999H357.178V288.651Z" fill="url(#paint45_linear)"/>
<path d="M328.997 232.796L330.89 237.502L325.829 245.811C325.829 245.811 317.03 239.504 315.1 236.896C313.171 234.288 307.576 227.326 310.889 224.706C314.202 222.086 324.045 230.989 324.045 230.989C324.045 230.989 322.273 225.07 325.259 226.307C326.06 226.647 328.997 232.796 328.997 232.796Z" fill="url(#paint46_linear)"/>
<path d="M364.168 165.746C363.618 168.102 363.564 170.548 364.011 172.926C364.043 173.943 364.34 174.934 364.872 175.801C365.562 176.568 366.454 177.127 367.445 177.414C370.977 178.728 374.699 179.461 378.465 179.585C379.203 179.517 379.941 179.719 380.541 180.155C381.147 180.725 381.147 181.684 381.572 182.399C382.446 183.928 384.631 183.843 386.427 183.552C386.832 192.864 384.177 202.052 378.866 209.714C381.654 210.866 384.713 211.203 387.686 210.688C390.659 210.173 393.425 208.826 395.663 206.803C395.056 208.623 397.532 210.212 399.304 209.605C401.075 208.999 402.216 207.179 403.151 205.53L404.037 207.701C407.293 205.092 409.488 201.389 410.214 197.282C410.915 193.189 410.992 189.014 410.445 184.898C410.16 180.386 409.186 175.943 407.556 171.726C405.89 167.478 402.744 163.976 398.697 161.864C395.25 160.227 391.318 160.021 387.507 159.96C380.953 159.9 366.838 157.255 364.168 165.746Z" fill="black"/>
<path d="M380.14 215.682L376.96 213.753L376.001 219.114L380.14 215.682Z" fill="url(#paint47_linear)"/>
<path d="M184.949 261.312C184.949 261.312 178.88 261.749 177.667 264.647C176.453 267.546 177.897 271.452 178.65 271.367C179.402 271.282 183.565 270.627 183.565 270.627C183.565 270.627 179.293 271.986 179.123 269.087C178.953 266.188 178.407 263.386 184.949 261.312Z" fill="url(#paint48_linear)"/>
</g>
<defs>
<linearGradient id="paint0_linear" x1="299.408" y1="187.918" x2="299.408" y2="337.496" gradientUnits="userSpaceOnUse">
<stop stop-opacity="0"/>
<stop offset="0.91" stop-opacity="0.8"/>
<stop offset="1"/>
</linearGradient>
<linearGradient id="paint1_linear" x1="17064.8" y1="11932.4" x2="17052.1" y2="13060" gradientUnits="userSpaceOnUse">
<stop stop-opacity="0"/>
<stop offset="0.91" stop-opacity="0.8"/>
<stop offset="1"/>
</linearGradient>
<linearGradient id="paint2_linear" x1="330.878" y1="338.308" x2="359.253" y2="338.308" gradientUnits="userSpaceOnUse">
<stop stop-color="#ECC4D7"/>
<stop offset="0.42" stop-color="#EFD4D1"/>
<stop offset="1" stop-color="#F2EAC9"/>
</linearGradient>
<linearGradient id="paint3_linear" x1="5344.21" y1="17313.6" x2="5554.34" y2="17313.6" gradientUnits="userSpaceOnUse">
<stop stop-color="#ECC4D7"/>
<stop offset="0.42" stop-color="#EFD4D1"/>
<stop offset="1" stop-color="#F2EAC9"/>
</linearGradient>
<linearGradient id="paint4_linear" x1="8343.51" y1="4130.4" x2="8961.51" y2="4130.4" gradientUnits="userSpaceOnUse">
<stop stop-color="#ECC4D7"/>
<stop offset="0.42" stop-color="#EFD4D1"/>
<stop offset="1" stop-color="#F2EAC9"/>
</linearGradient>
<linearGradient id="paint5_linear" x1="844.336" y1="15597.4" x2="522.505" y2="15521.5" gradientUnits="userSpaceOnUse">
<stop stop-opacity="0"/>
<stop offset="0.91" stop-opacity="0.8"/>
<stop offset="1"/>
</linearGradient>
<linearGradient id="paint6_linear" x1="2289.44" y1="2867.46" x2="2293.09" y2="2778.35" gradientUnits="userSpaceOnUse">
<stop stop-opacity="0"/>
<stop offset="0.91" stop-opacity="0.8"/>
<stop offset="1"/>
</linearGradient>
<linearGradient id="paint7_linear" x1="3392.96" y1="15018.6" x2="3071.13" y2="14942.8" gradientUnits="userSpaceOnUse">
<stop stop-opacity="0"/>
<stop offset="0.91" stop-opacity="0.8"/>
<stop offset="1"/>
</linearGradient>
<linearGradient id="paint8_linear" x1="9491.43" y1="2768.06" x2="9495.09" y2="2678.95" gradientUnits="userSpaceOnUse">
<stop stop-opacity="0"/>
<stop offset="0.91" stop-opacity="0.8"/>
<stop offset="1"/>
</linearGradient>
<linearGradient id="paint9_linear" x1="2916.02" y1="4991.44" x2="3008.65" y2="4991.44" gradientUnits="userSpaceOnUse">
<stop stop-color="#ECC4D7"/>
<stop offset="0.42" stop-color="#EFD4D1"/>
<stop offset="1" stop-color="#F2EAC9"/>
</linearGradient>
<linearGradient id="paint10_linear" x1="2804.95" y1="4540.99" x2="2873.31" y2="4540.99" gradientUnits="userSpaceOnUse">
<stop stop-color="#ECC4D7"/>
<stop offset="0.42" stop-color="#EFD4D1"/>
<stop offset="1" stop-color="#F2EAC9"/>
</linearGradient>
<linearGradient id="paint11_linear" x1="6721.65" y1="5380.57" x2="6762.57" y2="5672.34" gradientUnits="userSpaceOnUse">
<stop stop-opacity="0"/>
<stop offset="0.91" stop-opacity="0.8"/>
<stop offset="1"/>
</linearGradient>
<linearGradient id="paint12_linear" x1="5521.23" y1="5461.62" x2="5649.38" y2="5820.61" gradientUnits="userSpaceOnUse">
<stop stop-opacity="0"/>
<stop offset="0.91" stop-opacity="0.8"/>
<stop offset="1"/>
</linearGradient>
<linearGradient id="paint13_linear" x1="11151.9" y1="16653.6" x2="20063.1" y2="15848.5" gradientUnits="userSpaceOnUse">
<stop stop-opacity="0"/>
<stop offset="0.91" stop-opacity="0.8"/>
<stop offset="1"/>
</linearGradient>
<linearGradient id="paint14_linear" x1="1497.82" y1="4495.24" x2="1619.92" y2="4495.24" gradientUnits="userSpaceOnUse">
<stop stop-color="#ECC4D7"/>
<stop offset="0.42" stop-color="#EFD4D1"/>
<stop offset="1" stop-color="#F2EAC9"/>
</linearGradient>
<linearGradient id="paint15_linear" x1="1628.79" y1="5169.57" x2="1711.59" y2="5169.57" gradientUnits="userSpaceOnUse">
<stop stop-color="#ECC4D7"/>
<stop offset="0.42" stop-color="#EFD4D1"/>
<stop offset="1" stop-color="#F2EAC9"/>
</linearGradient>
<linearGradient id="paint16_linear" x1="4539.57" y1="5604.05" x2="4531.35" y2="5790.52" gradientUnits="userSpaceOnUse">
<stop stop-opacity="0"/>
<stop offset="0.91" stop-opacity="0.8"/>
<stop offset="1"/>
</linearGradient>
<linearGradient id="paint17_linear" x1="5486.14" y1="5687.49" x2="5510.2" y2="5875.82" gradientUnits="userSpaceOnUse">
<stop stop-opacity="0"/>
<stop offset="0.91" stop-opacity="0.8"/>
<stop offset="1"/>
</linearGradient>
<linearGradient id="paint18_linear" x1="7647.65" y1="14293.3" x2="6504.18" y2="14458.1" gradientUnits="userSpaceOnUse">
<stop stop-opacity="0"/>
<stop offset="0.91" stop-opacity="0.8"/>
<stop offset="1"/>
</linearGradient>
<linearGradient id="paint19_linear" x1="7474.98" y1="11523.5" x2="5997.1" y2="12912.4" gradientUnits="userSpaceOnUse">
<stop stop-opacity="0"/>
<stop offset="0.91" stop-opacity="0.8"/>
<stop offset="1"/>
</linearGradient>
<linearGradient id="paint20_linear" x1="5439.2" y1="3415.66" x2="5633.88" y2="3415.66" gradientUnits="userSpaceOnUse">
<stop stop-color="#ECC4D7"/>
<stop offset="0.42" stop-color="#EFD4D1"/>
<stop offset="1" stop-color="#F2EAC9"/>
</linearGradient>
<linearGradient id="paint21_linear" x1="47603.4" y1="3359.47" x2="47601.8" y2="4048.8" gradientUnits="userSpaceOnUse">
<stop stop-opacity="0"/>
<stop offset="0.91" stop-opacity="0.8"/>
<stop offset="1"/>
</linearGradient>
<linearGradient id="paint22_linear" x1="47450.9" y1="1492.76" x2="47450.9" y2="1562.79" gradientUnits="userSpaceOnUse">
<stop stop-opacity="0"/>
<stop offset="0.91" stop-opacity="0.8"/>
<stop offset="1"/>
</linearGradient>
<linearGradient id="paint23_linear" x1="10778.6" y1="10814.2" x2="12049.4" y2="10173.5" gradientUnits="userSpaceOnUse">
<stop stop-opacity="0"/>
<stop offset="0.91" stop-opacity="0.8"/>
<stop offset="1"/>
</linearGradient>
<linearGradient id="paint24_linear" x1="3502.72" y1="4538.61" x2="3759.73" y2="4538.61" gradientUnits="userSpaceOnUse">
<stop stop-color="#ECC4D7"/>
<stop offset="0.42" stop-color="#EFD4D1"/>
<stop offset="1" stop-color="#F2EAC9"/>
</linearGradient>
<linearGradient id="paint25_linear" x1="5643.91" y1="3234.28" x2="6001.41" y2="3234.28" gradientUnits="userSpaceOnUse">
<stop stop-color="#ECC4D7"/>
<stop offset="0.42" stop-color="#EFD4D1"/>
<stop offset="1" stop-color="#F2EAC9"/>
</linearGradient>
<linearGradient id="paint26_linear" x1="6861.86" y1="26267.5" x2="3239.95" y2="26385.6" gradientUnits="userSpaceOnUse">
<stop stop-opacity="0"/>
<stop offset="0.91" stop-opacity="0.8"/>
<stop offset="1"/>
</linearGradient>
<linearGradient id="paint27_linear" x1="2203.45" y1="4310.9" x2="1917.01" y2="4480.83" gradientUnits="userSpaceOnUse">
<stop stop-color="#ECC4D7"/>
<stop offset="0.42" stop-color="#EFD4D1"/>
<stop offset="1" stop-color="#F2EAC9"/>
</linearGradient>
<linearGradient id="paint28_linear" x1="4379.13" y1="3389.44" x2="4910.8" y2="3389.44" gradientUnits="userSpaceOnUse">
<stop stop-color="#ECC4D7"/>
<stop offset="0.42" stop-color="#EFD4D1"/>
<stop offset="1" stop-color="#F2EAC9"/>
</linearGradient>
<linearGradient id="paint29_linear" x1="5008.9" y1="16384.4" x2="2779.88" y2="16338.2" gradientUnits="userSpaceOnUse">
<stop stop-opacity="0"/>
<stop offset="0.91" stop-opacity="0.8"/>
<stop offset="1"/>
</linearGradient>
<linearGradient id="paint30_linear" x1="3073.33" y1="4372.96" x2="3552.35" y2="4372.96" gradientUnits="userSpaceOnUse">
<stop stop-color="#ECC4D7"/>
<stop offset="0.42" stop-color="#EFD4D1"/>
<stop offset="1" stop-color="#F2EAC9"/>
</linearGradient>
<linearGradient id="paint31_linear" x1="22747.3" y1="28186.3" x2="9309.5" y2="24891.3" gradientUnits="userSpaceOnUse">
<stop stop-opacity="0"/>
<stop offset="0.91" stop-opacity="0.8"/>
<stop offset="1"/>
</linearGradient>
<linearGradient id="paint32_linear" x1="11094.5" y1="6979.49" x2="10738.8" y2="7768.82" gradientUnits="userSpaceOnUse">
<stop stop-color="#ECC4D7"/>
<stop offset="0.42" stop-color="#EFD4D1"/>
<stop offset="1" stop-color="#F2EAC9"/>
</linearGradient>
<linearGradient id="paint33_linear" x1="20202" y1="18935" x2="17641.7" y2="19571.6" gradientUnits="userSpaceOnUse">
<stop stop-opacity="0"/>
<stop offset="0.91" stop-opacity="0.8"/>
<stop offset="1"/>
</linearGradient>
<linearGradient id="paint34_linear" x1="6145.26" y1="2416.46" x2="6151.01" y2="2535.13" gradientUnits="userSpaceOnUse">
<stop stop-opacity="0"/>
<stop offset="0.91" stop-opacity="0.8"/>
<stop offset="1"/>
</linearGradient>
<linearGradient id="paint35_linear" x1="33746.3" y1="15049.5" x2="26053.2" y2="14901.5" gradientUnits="userSpaceOnUse">
<stop stop-opacity="0"/>
<stop offset="0.91" stop-opacity="0.8"/>
<stop offset="1"/>
</linearGradient>
<linearGradient id="paint36_linear" x1="8936.17" y1="7205.12" x2="8872.82" y2="7511.61" gradientUnits="userSpaceOnUse">
<stop stop-opacity="0"/>
<stop offset="0.91" stop-opacity="0.8"/>
<stop offset="1"/>
</linearGradient>
<linearGradient id="paint37_linear" x1="9510.2" y1="6358.5" x2="9502.4" y2="6559.36" gradientUnits="userSpaceOnUse">
<stop stop-opacity="0"/>
<stop offset="0.91" stop-opacity="0.8"/>
<stop offset="1"/>
</linearGradient>
<linearGradient id="paint38_linear" x1="4165.73" y1="6282.75" x2="4508.75" y2="6645.19" gradientUnits="userSpaceOnUse">
<stop stop-color="#ECC4D7"/>
<stop offset="0.42" stop-color="#EFD4D1"/>
<stop offset="1" stop-color="#F2EAC9"/>
</linearGradient>
<linearGradient id="paint39_linear" x1="3378.29" y1="2720.44" x2="3450.55" y2="2823.84" gradientUnits="userSpaceOnUse">
<stop stop-color="#ECC4D7"/>
<stop offset="0.42" stop-color="#EFD4D1"/>
<stop offset="1" stop-color="#F2EAC9"/>
</linearGradient>
<linearGradient id="paint40_linear" x1="1988.2" y1="1497.71" x2="2021.09" y2="1497.71" gradientUnits="userSpaceOnUse">
<stop stop-color="#ECC4D7"/>
<stop offset="0.42" stop-color="#EFD4D1"/>
<stop offset="1" stop-color="#F2EAC9"/>
</linearGradient>
<linearGradient id="paint41_linear" x1="10070.4" y1="5784.33" x2="9662.14" y2="6822.42" gradientUnits="userSpaceOnUse">
<stop stop-color="#ECC4D7"/>
<stop offset="0.42" stop-color="#EFD4D1"/>
<stop offset="1" stop-color="#F2EAC9"/>
</linearGradient>
<linearGradient id="paint42_linear" x1="2204.83" y1="2949.95" x2="2081.72" y2="2980.01" gradientUnits="userSpaceOnUse">
<stop stop-opacity="0"/>
<stop offset="0.91" stop-opacity="0.8"/>
<stop offset="1"/>
</linearGradient>
<linearGradient id="paint43_linear" x1="10910.8" y1="25358.1" x2="8916.76" y2="26386.8" gradientUnits="userSpaceOnUse">
<stop stop-opacity="0"/>
<stop offset="0.91" stop-opacity="0.8"/>
<stop offset="1"/>
</linearGradient>
<linearGradient id="paint44_linear" x1="1594.54" y1="36205.1" x2="4256.99" y2="25705.1" gradientUnits="userSpaceOnUse">
<stop stop-opacity="0"/>
<stop offset="0.91" stop-opacity="0.8"/>
<stop offset="1"/>
</linearGradient>
<linearGradient id="paint45_linear" x1="3302.44" y1="34588.8" x2="5857.03" y2="26873.8" gradientUnits="userSpaceOnUse">
<stop stop-opacity="0"/>
<stop offset="0.91" stop-opacity="0.8"/>
<stop offset="1"/>
</linearGradient>
<linearGradient id="paint46_linear" x1="6463.55" y1="5393.53" x2="6278" y2="5133.65" gradientUnits="userSpaceOnUse">
<stop stop-color="#ECC4D7"/>
<stop offset="0.42" stop-color="#EFD4D1"/>
<stop offset="1" stop-color="#F2EAC9"/>
</linearGradient>
<linearGradient id="paint47_linear" x1="1658.17" y1="1170.39" x2="1672.28" y2="1170.39" gradientUnits="userSpaceOnUse">
<stop stop-opacity="0"/>
<stop offset="0.91" stop-opacity="0.8"/>
<stop offset="1"/>
</linearGradient>
<linearGradient id="paint48_linear" x1="1495.29" y1="2740.34" x2="1451.16" y2="2875" gradientUnits="userSpaceOnUse">
<stop stop-opacity="0"/>
<stop offset="0.91" stop-opacity="0.8"/>
<stop offset="1"/>
</linearGradient>
<clipPath id="clip0">
<rect width="495" height="413" fill="white"/>
</clipPath>
</defs>
</svg>
