<svg viewBox="0 0 933 581" fill="none" xmlns="http://www.w3.org/2000/svg">
<g clip-path="url(#clip0)">
<path opacity="0.1" d="M581.625 580.385C736.002 580.385 861.149 571.703 861.149 560.992C861.149 550.282 736.002 541.599 581.625 541.599C427.248 541.599 302.101 550.282 302.101 560.992C302.101 571.703 427.248 580.385 581.625 580.385Z" fill="#00C1FF"/>
<path opacity="0.1" d="M277.511 101.763C260.093 122.155 255.687 148.006 255.447 172.793C255.278 190.271 257.666 209.23 272.254 222.119C291.457 239.079 328.324 242.421 337.838 264.092C346.274 283.349 326.643 302.723 307.785 316.313C288.926 329.904 267.27 346.545 270.794 366.782C273.027 379.704 285.272 389.849 297.486 398.364C320.705 414.59 346.806 428.784 376.23 435.69C429.613 448.203 487.272 435.249 537.294 415.635C568.087 403.563 603.838 388.746 634.416 401.162C642.489 404.439 649.342 409.391 656.786 413.493C678.428 425.351 704.86 429.719 730.585 433.425C768.289 438.877 807.914 443.427 844.243 433.594C880.571 423.761 911.968 395.002 906.406 364.329C901.162 335.434 867.78 316.599 841.18 296.862C831.796 289.898 822.243 280.669 824.579 270.537C826.435 262.502 835.17 256.908 842.958 251.715C883.946 224.235 914.07 186.299 927.919 144.703C934.46 125.076 936.823 102.464 922.227 85.9134C910.455 72.5628 890.28 66.1503 871.09 60.8737C835.482 51.0798 798.985 42.8046 761.533 40.572C724.082 38.3393 685.392 42.597 652.146 56.7264C636.201 63.5088 621.749 72.4395 605.648 78.9687C559.936 97.5051 506.073 95.0128 455.091 92.0857C436.875 91.0407 417.834 89.1845 402.019 81.2274C388.391 74.3606 380.604 69.4409 363.731 68.6751C330.66 67.1758 296.447 79.5529 277.511 101.763Z" fill="#00C1FF"/>
<path d="M524.374 241.46L523.66 242.934L519.033 252.442L470.498 352.114L388.139 553.937L376.367 554.028L458.771 352.114L514.925 236.781L519.033 238.812L523.66 241.103L524.374 241.46Z" fill="#535461"/>
<path d="M668.87 554.028L659.181 553.937L576.816 352.114L529.559 255.058L523.66 242.934L522.939 241.46L523.66 241.103L529.559 238.183L532.395 236.781L587.705 352.114L668.87 554.028Z" fill="#535461"/>
<path d="M529.566 209.671H519.033V554.028H529.566V209.671Z" fill="#535461"/>
<path d="M523.095 152.939C519.541 152.942 516.135 154.355 513.623 156.868C511.11 159.381 509.697 162.788 509.694 166.341V171.131C509.654 172.916 509.972 174.692 510.628 176.352C511.284 178.013 512.265 179.526 513.514 180.803C514.762 182.079 516.253 183.094 517.899 183.786C519.545 184.478 521.312 184.835 523.098 184.835C524.883 184.835 526.651 184.478 528.297 183.786C529.942 183.094 531.433 182.079 532.682 180.803C533.931 179.526 534.912 178.013 535.568 176.352C536.224 174.692 536.541 172.916 536.502 171.131V166.341C536.497 162.787 535.082 159.38 532.569 156.868C530.056 154.355 526.648 152.942 523.095 152.939ZM533.147 171.112C533.147 173.78 532.087 176.339 530.201 178.225C528.314 180.112 525.756 181.172 523.088 181.172C520.42 181.172 517.862 180.112 515.975 178.225C514.089 176.339 513.029 173.78 513.029 171.112V166.322C513.029 163.654 514.089 161.095 515.975 159.208C517.862 157.322 520.42 156.262 523.088 156.262C525.756 156.262 528.314 157.322 530.201 159.208C532.087 161.095 533.147 163.654 533.147 166.322V171.112Z" fill="#535461"/>
<path opacity="0.1" d="M587.705 352.114H576.815L529.558 255.058V352.114H519.032V252.442L470.497 352.114H458.771L514.925 236.781L519.032 238.812V209.671H529.558V238.183L532.394 236.781L587.705 352.114Z" fill="black"/>
<path opacity="0.1" d="M536.502 166.822V171.131C536.541 172.916 536.224 174.692 535.568 176.352C534.912 178.013 533.931 179.526 532.682 180.803C531.433 182.079 529.942 183.094 528.297 183.786C526.651 184.478 524.883 184.835 523.098 184.835C521.312 184.835 519.545 184.478 517.899 183.786C516.253 183.094 514.762 182.079 513.514 180.803C512.265 179.526 511.284 178.013 510.628 176.352C509.972 174.692 509.654 172.916 509.694 171.131V166.822H513.042V171.131C513.042 173.799 514.102 176.358 515.988 178.245C517.875 180.131 520.433 181.191 523.101 181.191C525.769 181.191 528.327 180.131 530.214 178.245C532.1 176.358 533.16 173.799 533.16 171.131V166.822H536.502Z" fill="black"/>
<path d="M725.602 167.782H320.596V350.68H725.602V167.782Z" fill="#535461"/>
<path d="M717.463 173.526H327.779V340.146H717.463V173.526Z" fill="white"/>
<g opacity="0.2">
<path opacity="0.2" d="M384.686 191.641H366.263V200.033H384.686V191.641Z" fill="#00C1FF"/>
</g>
<g opacity="0.2">
<path opacity="0.2" d="M384.686 207.873H366.263V216.265H384.686V207.873Z" fill="#00C1FF"/>
</g>
<g opacity="0.2">
<path opacity="0.2" d="M384.686 224.099H366.263V232.491H384.686V224.099Z" fill="#00C1FF"/>
</g>
<g opacity="0.2">
<path opacity="0.2" d="M384.686 240.325H366.263V248.717H384.686V240.325Z" fill="#00C1FF"/>
</g>
<g opacity="0.2">
<path opacity="0.2" d="M384.686 256.557H366.263V264.949H384.686V256.557Z" fill="#00C1FF"/>
</g>
<g opacity="0.2">
<path opacity="0.2" d="M384.686 272.783H366.263V281.175H384.686V272.783Z" fill="#00C1FF"/>
</g>
<g opacity="0.2">
<path opacity="0.2" d="M384.686 289.008H366.263V297.4H384.686V289.008Z" fill="#00C1FF"/>
</g>
<g opacity="0.2">
<path opacity="0.2" d="M384.686 305.234H366.263V313.626H384.686V305.234Z" fill="#00C1FF"/>
</g>
<g opacity="0.2">
<path opacity="0.2" d="M419.373 313.633H400.949V322.025H419.373V313.633Z" fill="#00C1FF"/>
</g>
<g opacity="0.2">
<path opacity="0.2" d="M451.827 313.633H433.403V322.025H451.827V313.633Z" fill="#00C1FF"/>
</g>
<g opacity="0.2">
<path opacity="0.2" d="M484.275 313.633H465.852V322.025H484.275V313.633Z" fill="#00C1FF"/>
</g>
<g opacity="0.2">
<path opacity="0.2" d="M516.728 313.633H498.305V322.025H516.728V313.633Z" fill="#00C1FF"/>
</g>
<g opacity="0.2">
<path opacity="0.2" d="M549.177 313.633H530.753V322.025H549.177V313.633Z" fill="#00C1FF"/>
</g>
<g opacity="0.2">
<path opacity="0.2" d="M581.631 313.633H563.207V322.025H581.631V313.633Z" fill="#00C1FF"/>
</g>
<g opacity="0.2">
<path opacity="0.2" d="M614.079 313.633H595.655V322.025H614.079V313.633Z" fill="#00C1FF"/>
</g>
<g opacity="0.2">
<path opacity="0.2" d="M646.533 313.633H628.109V322.025H646.533V313.633Z" fill="#00C1FF"/>
</g>
<g opacity="0.2">
<path opacity="0.2" d="M678.98 313.633H660.557V322.025H678.98V313.633Z" fill="#00C1FF"/>
</g>
<path d="M419.373 252.637H400.949V305.234H419.373V252.637Z" fill="#00C1FF"/>
<path d="M451.827 228.298H433.403V305.241H451.827V228.298Z" fill="#00C1FF"/>
<path d="M484.275 207.873H465.852V305.241H484.275V207.873Z" fill="#00C1FF"/>
<path d="M516.728 218.459H498.305V305.234H516.728V218.459Z" fill="#00C1FF"/>
<path d="M549.177 200.039H530.753V305.241H549.177V200.039Z" fill="#00C1FF"/>
<g opacity="0.2">
<path opacity="0.2" d="M581.631 240.325H563.207V305.234H581.631V240.325Z" fill="#00C1FF"/>
</g>
<g opacity="0.2">
<path opacity="0.2" d="M614.079 240.325H595.655V305.234H614.079V240.325Z" fill="#00C1FF"/>
</g>
<g opacity="0.2">
<path opacity="0.2" d="M646.533 240.325H628.109V305.234H646.533V240.325Z" fill="#00C1FF"/>
</g>
<g opacity="0.2">
<path opacity="0.2" d="M678.98 240.325H660.557V305.234H678.98V240.325Z" fill="#00C1FF"/>
</g>
<path d="M658.441 240.182L500.681 249.891V252.968L661.803 246.575L658.441 240.182Z" fill="#535461"/>
<path d="M845.224 304.28C845.224 304.28 853.478 290.702 851.285 269.401C849.091 248.1 841.155 213.623 841.155 213.623C841.155 213.623 844.601 194.308 825.911 191.595C825.911 191.595 814.294 189.434 805.988 184.209C802.899 182.262 800.27 179.906 798.849 177.07C798.849 177.07 798.739 177.388 798.525 177.972C798.341 177.68 798.172 177.379 798.019 177.07C798.019 177.07 797.973 177.187 797.902 177.394L794.728 172.449C794.728 172.449 794.294 172.91 793.56 173.669C792.284 171.837 791.197 169.879 790.315 167.828C791.105 167.637 791.879 167.39 792.632 167.088C793.353 166.849 794.002 166.434 794.521 165.88C794.975 165.249 795.269 164.516 795.377 163.745C795.883 161.278 796.027 158.751 795.806 156.242C795.63 154.295 795.235 152.348 795.371 150.369C795.514 148.259 796.26 146.221 796.364 144.105C796.545 140.38 794.696 136.836 792.412 133.883C791.049 132.124 789.517 130.489 788.336 128.607C787.311 126.971 786.564 125.167 785.461 123.577C782.865 119.877 778.537 117.696 774.098 116.924C769.659 116.152 765.091 116.632 760.645 117.365C756.752 118.014 752.858 118.955 748.964 119.183C745.564 119.377 742.793 118.229 739.678 120.481C738.646 121.241 737.789 122.214 737.164 123.334C736.54 124.453 736.162 125.693 736.056 126.971C736.006 127.406 736.039 127.847 736.154 128.269C736.338 128.707 736.554 129.13 736.803 129.535C738.185 132.261 736.082 135.499 736.355 138.543C736.521 139.889 737.137 141.14 738.103 142.092C739.069 143.043 740.328 143.641 741.676 143.787C741.553 144.047 741.417 144.3 741.3 144.566C739.576 148.461 738.801 152.708 739.038 156.961C739.275 161.213 740.517 165.348 742.663 169.027C744.808 172.706 747.795 175.823 751.38 178.123C754.964 180.422 759.042 181.839 763.28 182.256L764.487 183.184C767.213 185.293 770.276 187.818 773.229 190.563L773.17 190.609L772.69 190.336C771.791 191.047 770.846 191.698 769.86 192.283C767.128 193.958 762.722 196.132 757.764 196.379C757.764 196.379 748.886 201.084 745.83 216.602C741.443 220.536 732.052 227.636 719.644 229.486C702.207 232.082 680.707 232.932 680.707 232.932C680.707 232.932 680.532 233.244 680.285 233.815L678.299 233.451C678.299 233.451 678.299 233.691 678.215 234.1L677.436 233.75C671.278 231.056 658.974 227.13 657.416 237.949C655.326 252.461 669.162 250.793 669.162 250.793C671.898 249.754 674.702 248.902 677.553 248.243L678.325 248.093C678.457 248.472 678.64 248.83 678.871 249.158H680.753C681.406 250.511 682.196 251.794 683.108 252.987L726.965 252.027C726.965 252.027 734.46 250.391 741.378 251.429C738.36 273.99 734.797 298.731 734.797 298.731C734.797 298.731 727.334 337.913 732.559 342.008C735.591 340.997 738.681 340.169 741.813 339.529C741.86 341.95 742.116 344.363 742.578 346.74L745.92 368.619C745.92 368.619 747.218 390.972 751.56 404.316L755.389 422.553L758.595 436.339L760.399 459.737C762.876 469.648 764.667 479.719 765.759 489.878C767.453 505.597 776.649 531 777.875 534.343C774.734 538.789 768.283 546.33 760.191 547.109C748.64 548.226 748.361 555.19 756.434 557.695C764.507 560.2 781.496 557.695 781.496 557.695L805.456 551.769C804.735 556.189 804.359 559.681 804.885 560.058C806.416 561.174 829.668 567.197 830.505 557.552C830.57 556.756 830.629 555.984 830.68 555.235C831.027 549.057 830.201 542.869 828.247 536.997C828.059 536.42 827.89 535.836 827.741 535.251C828.086 534.866 828.402 534.456 828.688 534.025C828.688 534.025 830.362 507.986 831.615 498.652C831.712 497.906 831.777 496.997 831.81 495.972C832.387 484.783 828.305 455.349 828.305 455.349C828.305 455.349 823.263 436.203 823.451 427.402C823.48 426.67 823.604 425.946 823.821 425.247C823.821 425.247 823.821 425.072 823.756 424.78C823.756 424.656 823.815 424.527 823.853 424.41C823.853 424.41 821.297 406.886 821.653 396.462C821.703 394.907 821.921 393.362 822.302 391.854C822.708 389.874 822.915 387.859 822.919 385.838C823.243 378.698 822.867 366.367 822.348 354.801C822.406 354.606 822.465 354.412 822.51 354.184C822.615 353.263 822.506 352.331 822.192 351.458C822.153 350.712 822.121 349.972 822.082 349.239C822.296 348.505 822.471 347.726 822.627 346.922H822.964V346.967C822.964 346.967 844.782 345.922 849.799 340.074C849.799 340.074 844.73 324.322 841.92 311.517L845.224 304.28ZM751.203 255.285L750.859 255.161C751.411 253.214 752.066 250.949 752.806 248.574C752.176 251.144 751.631 253.48 751.203 255.285ZM773.345 190.712L773.443 190.803L773.339 190.745L773.345 190.712ZM800.601 528.547C799.427 524.503 794.761 508.018 794.91 500.158C794.943 499.475 795.063 498.799 795.267 498.146C795.7 496.722 795.918 495.241 795.916 493.752C796.383 485.549 793.242 470.848 793.242 470.848C793.242 470.848 786.214 451.02 786.753 435.274C786.753 434.879 786.798 434.483 786.824 434.087C786.941 432.594 787.032 430.978 787.097 429.271V429.238C787.363 423.157 787.304 415.836 787.129 409.008L787.09 408.755C786.85 399.714 786.402 391.575 786.214 388.356C786.863 393.009 791.016 421.976 792.807 426.714C792.807 426.714 793.787 440.077 798.239 451.377L803.119 480.752C803.119 480.752 804.372 515.709 806.455 525.594C807.389 529.994 808.181 532.96 808.772 534.895C807.928 538.834 806.565 545.435 805.65 550.9C805.112 547.336 803.217 533.759 800.608 528.547H800.601Z" fill="url(#paint0_linear)"/>
<path d="M779.738 529.449C779.738 529.449 771.593 544.215 760.139 545.318C748.685 546.421 748.412 553.321 756.414 555.806C764.416 558.292 781.256 555.806 781.256 555.806L805.267 549.874C805.267 549.874 802.367 526.133 798.505 524.893C794.644 523.653 779.738 529.449 779.738 529.449Z" fill="#4C4C78"/>
<path d="M809.005 529.722C809.005 529.722 802.931 557.046 804.462 558.156C805.994 559.266 829.025 565.191 829.856 555.67C829.921 554.87 829.979 554.104 830.031 553.372C830.371 547.249 829.552 541.116 827.617 535.297C826.968 533.35 826.514 531.266 826.683 529.722C827.066 525.86 809.005 529.722 809.005 529.722Z" fill="#4C4C78"/>
<path d="M801.471 183.781C801.471 183.781 782.839 229.551 786.156 214.85C788.349 205.115 774.169 192.179 764.364 184.579C759.373 180.685 755.519 178.212 755.519 178.212C755.519 178.212 790.497 137.427 788.018 155.022C787.338 159.841 787.998 164.754 789.926 169.223C793.787 178.4 801.471 183.781 801.471 183.781Z" fill="#FFB9B9"/>
<path d="M682.459 248.801C681.473 248.548 679.863 248.71 678.196 249.067C675.371 249.719 672.593 250.563 669.882 251.592C669.882 251.592 656.17 253.247 658.24 238.864C659.778 228.142 671.972 232.036 678.079 234.697C680.155 235.613 681.531 236.378 681.531 236.378L682.459 248.801Z" fill="#FFB9B9"/>
<path opacity="0.1" d="M682.459 248.801C681.473 248.548 679.864 248.71 678.196 249.067C676.703 245.303 677.839 236.378 678.079 234.697C680.156 235.613 681.531 236.378 681.531 236.378L682.459 248.801Z" fill="black"/>
<path d="M682.517 235.067L678.928 234.418C678.928 234.418 677.092 246.75 679.493 249.995H683.62L682.517 235.067Z" fill="#CBCDDA"/>
<path d="M754.493 257.569C754.493 257.569 743.526 251.008 742.215 259.289C740.904 267.571 739.178 281.72 739.178 281.72L736.141 299.73L732.208 335.817L732.76 341.957C732.76 341.957 744.441 338.023 747.179 339.406C749.918 340.788 752.15 324.225 752.15 324.225L756.693 307.11L757.381 270.816L754.493 257.569Z" fill="#4C4C78"/>
<path opacity="0.1" d="M754.493 257.569C754.493 257.569 743.526 251.008 742.215 259.289C740.904 267.571 739.178 281.72 739.178 281.72L736.141 299.73L732.208 335.817L732.76 341.957C732.76 341.957 744.441 338.023 747.179 339.406C749.918 340.788 752.15 324.225 752.15 324.225L756.693 307.11L757.381 270.816L754.493 257.569Z" fill="black"/>
<path d="M748.581 215.058C748.581 215.058 737.199 227.896 719.917 230.479C702.635 233.062 681.311 233.899 681.311 233.899C681.311 233.899 675.931 243.524 683.692 253.773L727.172 252.812C727.172 252.812 736.796 250.722 744.253 252.812L748.581 215.058Z" fill="#4C4C78"/>
<path opacity="0.05" d="M748.581 215.058C748.581 215.058 737.199 227.896 719.917 230.479C702.635 233.062 681.311 233.899 681.311 233.899C681.311 233.899 675.931 243.524 683.692 253.773L727.172 252.812C727.172 252.812 736.796 250.722 744.253 252.812L748.581 215.058Z" fill="black"/>
<path opacity="0.1" d="M788.083 168.827C783.839 177.914 776.46 184.612 765.759 184.612C765.285 184.612 764.825 184.612 764.364 184.579C759.373 180.685 755.519 178.212 755.519 178.212C755.519 178.212 790.497 137.427 788.018 155.022C787.252 160.409 786.376 164.784 788.083 168.827Z" fill="black"/>
<path d="M792.417 157.112C792.413 162.386 790.846 167.541 787.913 171.924C784.98 176.307 780.814 179.722 775.941 181.737C771.068 183.753 765.706 184.278 760.535 183.246C755.363 182.214 750.614 179.672 746.887 175.941C743.16 172.21 740.623 167.457 739.596 162.284C738.57 157.111 739.1 151.75 741.119 146.878C743.139 142.006 746.558 137.843 750.944 134.914C755.329 131.985 760.485 130.423 765.758 130.424C769.263 130.417 772.735 131.103 775.974 132.442C779.213 133.781 782.156 135.747 784.633 138.227C787.11 140.707 789.073 143.652 790.409 146.893C791.745 150.134 792.427 153.607 792.417 157.112Z" fill="#FFB9B9"/>
<path d="M808.713 320.084C808.713 320.084 749.243 325.335 747.062 317.741C744.882 310.147 753.13 289.586 753.13 289.586L750.443 260.879L750.346 259.783C750.346 259.783 757.796 228.726 757.523 226.247C757.264 224.014 769.516 197.956 772.034 192.627C772.333 192.011 772.488 191.673 772.488 191.673L772.962 191.946L773.17 192.069L776.084 193.769L787.589 191.043L801.458 183.781L802.756 263.229L808.713 320.084Z" fill="#CBCDDA"/>
<path opacity="0.1" d="M777.804 192.634C777.804 192.634 773.735 191.53 772.145 195.6C771.522 197.349 770.785 199.055 769.938 200.708L768.355 210.157L765.454 225.085L763.312 291.124L764.279 302.852L769.594 293.402L770.561 231.673V223.995C770.872 217.356 772.372 210.828 774.987 204.719L775.727 202.986L780.348 197.047L777.804 192.634Z" fill="black"/>
<path d="M776.979 191.803C776.979 191.803 772.904 190.699 771.32 194.769C770.697 196.519 769.958 198.225 769.108 199.877L767.524 209.333L764.623 224.261L762.488 290.3L763.455 302.034L768.77 292.552L769.737 230.862V223.164C770.054 216.527 771.553 209.999 774.163 203.888L774.909 202.155L779.53 196.223L776.979 191.803Z" fill="#4C4C78"/>
<path opacity="0.1" d="M794.364 174.759C794.364 174.759 780.288 189.687 775.317 191.459C775.317 191.459 777.803 202.778 780.288 204.985C780.288 204.985 795.059 189.921 797.674 188.7L799.867 183.333L794.364 174.759Z" fill="black"/>
<path d="M794.364 173.909C794.364 173.909 780.288 188.837 775.317 190.609C775.317 190.609 777.803 201.928 780.288 204.134C780.288 204.134 795.059 189.07 797.674 187.85L799.867 182.489L794.364 173.909Z" fill="#CBCDDA"/>
<path opacity="0.1" d="M773.313 191.673L773.17 192.062L768.66 204.154L760.594 226.967C760.594 226.967 760.522 227.201 760.38 227.616C759.043 231.77 751.859 254.311 750.444 260.86L750.347 259.763C750.347 259.763 757.797 228.707 757.524 226.228C757.265 223.995 769.517 197.936 772.035 192.608C772.437 192.335 772.749 192.101 772.963 191.926L773.313 191.673Z" fill="black"/>
<path d="M772.488 191.667L767.829 204.154L759.762 226.967C759.762 226.967 759.691 227.201 759.548 227.616C758.134 232.043 750.067 257.31 749.418 261.931C748.685 267.006 738.542 294.441 738.542 294.441L732.746 341.944C727.555 337.913 734.927 299.107 734.927 299.107C734.927 299.107 743.208 241.558 745.167 222.411C747.127 203.265 757.699 197.67 757.699 197.67C762.579 197.423 766.979 195.269 769.685 193.614C770.662 193.028 771.599 192.378 772.488 191.667Z" fill="#4C4C78"/>
<path opacity="0.1" d="M830.927 497.29C829.687 506.538 828.032 532.337 828.032 532.337C822.237 541.028 809.401 536.335 809.401 536.335C809.401 536.335 808.025 533.739 805.955 523.913C803.885 514.087 802.645 479.474 802.645 479.474L797.81 450.397C793.398 439.214 792.431 425.967 792.431 425.967C790.484 420.859 785.805 387.324 785.805 387.324C785.805 387.324 787.752 417.407 786.499 433.282C785.247 449.157 792.839 470.517 792.839 470.517C792.839 470.517 797.123 490.533 794.91 496.744C792.697 502.956 800.432 528.618 800.432 528.618C799.783 536.076 777.81 533.038 777.81 533.038C777.81 533.038 767.472 505.292 765.661 488.593C764.576 478.531 762.8 468.555 760.346 458.737L758.555 435.547L755.375 421.84L751.585 403.764C747.302 390.517 745.998 368.366 745.998 368.366L742.682 346.63C740.514 335.882 743.331 323.264 745.2 316.664C746.011 313.802 746.66 312.056 746.66 312.056C748.561 313.406 759.451 314.989 765.084 316.274C768.166 316.985 771.337 317.239 774.493 317.027C788.735 315.896 802.823 313.313 816.539 309.317C817.467 309.038 817.96 308.875 817.96 308.875L818.252 311.361L818.94 317.28L820.167 327.788C820.167 327.788 823.892 383.819 821.685 391.393C819.479 398.968 823.204 424.494 823.204 424.494C821.134 430.55 827.617 455.161 827.617 455.161C827.617 455.161 832.173 488.041 830.927 497.29Z" fill="black"/>
<path d="M830.927 496.478C829.687 505.727 828.032 531.526 828.032 531.526C822.237 540.223 809.401 535.524 809.401 535.524C809.401 535.524 808.025 532.928 805.955 523.108C803.885 513.288 802.645 478.662 802.645 478.662L797.81 449.547C793.43 438.364 792.431 425.085 792.431 425.085C790.484 419.977 785.805 386.441 785.805 386.441C785.805 386.441 787.752 416.524 786.499 432.399C785.247 448.275 792.839 469.66 792.839 469.66C792.839 469.66 797.123 489.676 794.91 495.888C792.697 502.099 800.432 527.768 800.432 527.768C799.783 535.219 777.81 532.182 777.81 532.182C777.81 532.182 767.472 504.468 765.661 487.762C764.576 477.7 762.8 467.724 760.346 457.906L758.555 434.723L755.375 421.061L751.585 402.985C747.302 389.732 745.998 367.58 745.998 367.58L742.682 345.844C740.514 335.096 743.331 322.479 745.2 315.878C746.011 313.023 746.66 311.277 746.66 311.277C748.561 312.627 759.451 314.204 765.084 315.489C768.166 316.203 771.337 316.456 774.493 316.242C788.735 315.111 802.823 312.527 816.539 308.531L817.96 308.096L818.252 310.576L818.94 316.501L820.167 327.009C820.167 327.009 823.892 383.034 821.685 390.615C819.479 398.195 823.204 423.715 823.204 423.715C821.134 429.764 827.617 454.376 827.617 454.376C827.617 454.376 832.173 487.217 830.927 496.478Z" fill="#474463"/>
<path opacity="0.1" d="M792.418 157.112C792.426 161.776 791.208 166.359 788.887 170.404C784.734 171.138 780.315 170.326 777.206 167.581C775.078 165.705 773.702 163.142 771.872 160.967C770.687 159.631 769.414 158.376 768.062 157.209C767.179 156.33 766.166 155.592 765.058 155.022C764.5 154.741 763.886 154.591 763.261 154.584C762.637 154.577 762.019 154.714 761.456 154.983C759.989 155.801 759.509 157.625 758.659 159.079C758.02 160.327 756.925 161.282 755.602 161.746C754.941 161.958 754.229 161.952 753.571 161.728C752.914 161.505 752.345 161.077 751.949 160.507C751.047 158.955 751.709 156.534 750.197 155.587C749.798 155.39 749.386 155.221 748.964 155.081C747.017 154.198 746.79 151.582 746.621 149.44C746.537 148.389 746.309 147.201 745.427 146.637C744.544 146.072 743.383 146.358 742.331 146.377C742.02 146.389 741.709 146.365 741.403 146.306C743.882 140.718 748.204 136.152 753.646 133.371C759.089 130.59 765.321 129.764 771.301 131.03C777.28 132.295 782.643 135.577 786.492 140.325C790.34 145.073 792.442 151 792.444 157.112H792.418Z" fill="black"/>
<path d="M739.769 122.428C738.744 123.184 737.894 124.151 737.275 125.264C736.656 126.377 736.282 127.61 736.18 128.879C736.131 129.303 736.164 129.733 736.278 130.145C736.459 130.582 736.676 131.003 736.927 131.404C738.289 134.11 736.206 137.317 736.472 140.335C736.653 141.76 737.344 143.072 738.418 144.027C739.492 144.982 740.876 145.515 742.313 145.527C743.364 145.527 744.519 145.215 745.408 145.786C746.297 146.358 746.518 147.539 746.603 148.59C746.771 150.732 746.985 153.348 748.939 154.23C749.36 154.374 749.771 154.543 750.172 154.737C751.69 155.684 751.028 158.112 751.93 159.656C752.327 160.227 752.895 160.655 753.553 160.878C754.211 161.101 754.923 161.108 755.584 160.896C756.905 160.433 757.997 159.48 758.634 158.235C759.471 156.775 759.971 154.99 761.438 154.139C762 153.868 762.618 153.729 763.242 153.735C763.867 153.74 764.482 153.89 765.039 154.172C766.148 154.744 767.161 155.484 768.044 156.366C769.398 157.53 770.67 158.786 771.853 160.124C773.683 162.291 775.059 164.855 777.188 166.731C781.198 170.255 787.337 170.625 792.282 168.593C792.996 168.355 793.64 167.945 794.158 167.399C794.609 166.771 794.901 166.043 795.008 165.277C795.51 162.834 795.654 160.33 795.436 157.845C795.261 155.898 794.865 153.951 795.001 152.004C795.138 149.914 795.884 147.896 795.988 145.806C796.17 142.106 794.333 138.595 792.094 135.668C790.744 133.922 789.226 132.306 788.058 130.437C787.039 128.814 786.299 127.029 785.209 125.459C782.652 121.792 778.343 119.617 773.943 118.858C769.543 118.099 765.02 118.566 760.613 119.299C756.772 119.948 752.904 120.87 749.01 121.097C745.603 121.337 742.858 120.189 739.769 122.428Z" fill="#472727"/>
<path opacity="0.1" d="M772.488 191.667L767.828 204.154L759.762 226.967C759.762 226.967 759.691 227.201 759.548 227.616V227.649L769.697 193.601C770.67 193.019 771.602 192.373 772.488 191.667Z" fill="black"/>
<path d="M822.86 334.577C822.86 334.577 823.34 349.686 819.271 353.483L808.44 333.058L817.526 328.638L822.86 334.577Z" fill="#FFB9B9"/>
<path opacity="0.1" d="M848.143 340.094C843.172 345.89 821.536 346.928 821.536 346.928L800.121 313.178C800.121 313.178 795.052 309.661 785.532 293.818C776.012 277.975 776.324 265.773 776.856 256.661C777.388 247.548 783.345 221.36 783.345 221.36C784.273 215.467 797.622 178.524 797.622 178.524C799.024 181.321 801.633 183.657 804.683 185.585C812.925 190.777 824.431 192.906 824.431 192.906C842.965 195.6 839.545 214.746 839.545 214.746C839.545 214.746 839.752 289.171 838.61 298.075C837.468 306.98 848.143 340.094 848.143 340.094Z" fill="black"/>
<path d="M823.139 337.472L822.516 342.995L814.995 340.237L809.479 331.884L813.619 328.638L823.139 337.472Z" fill="#CBCDDA"/>
<path opacity="0.1" d="M822.874 316.08L818.941 316.482L781.022 320.272C774.933 320.884 768.787 320.582 762.787 319.377L745.2 315.859C746.011 313.003 746.66 311.257 746.66 311.257C748.562 312.607 759.451 314.184 765.084 315.47C768.166 316.183 771.337 316.437 774.494 316.222C788.735 315.091 802.824 312.508 816.54 308.512L818.253 310.556L822.874 316.08Z" fill="black"/>
<g opacity="0.1">
<path opacity="0.1" d="M747.056 311.465C746.931 311.403 746.81 311.334 746.693 311.257C746.693 311.257 746.693 311.296 746.654 311.354L747.056 311.465Z" fill="black"/>
<path opacity="0.1" d="M827.651 454.369C827.651 454.369 821.161 429.758 823.238 423.709C823.238 423.709 819.513 398.202 821.726 390.608C823.938 383.014 820.201 327.003 820.201 327.003L818.974 316.495L818.286 310.569L818.001 308.09L816.573 308.525L815.69 308.784L815.801 309.745L816.488 315.664L817.715 326.172C817.715 326.172 821.44 382.203 819.24 389.777C817.04 397.351 820.752 422.878 820.752 422.878C818.682 428.933 825.165 453.538 825.165 453.538C825.165 453.538 829.708 486.392 828.481 495.635C827.255 504.877 825.58 530.682 825.58 530.682C821.349 537.036 813.361 536.244 809.356 535.355L809.428 535.511C809.428 535.511 822.264 540.21 828.059 531.513C828.059 531.513 829.714 505.701 830.96 496.465C832.206 487.23 827.651 454.369 827.651 454.369Z" fill="black"/>
<path opacity="0.1" d="M794.95 495.914C797.156 489.702 792.88 469.686 792.88 469.686C792.88 469.686 785.293 448.268 786.533 432.425C787.052 425.812 787.02 416.738 786.799 408.411C785.04 397.669 783.353 385.695 783.353 385.695C783.353 385.695 785.3 415.777 784.054 431.646C782.808 447.515 790.394 468.914 790.394 468.914C790.394 468.914 794.677 488.923 792.464 495.135C790.251 501.346 797.974 526.983 797.974 526.983C797.422 532.954 783.243 532.175 777.616 531.656L777.83 532.227C777.83 532.227 799.772 535.264 800.459 527.814C800.472 527.794 792.743 502.125 794.95 495.914Z" fill="black"/>
</g>
<path d="M848.967 340.094C844.003 345.89 822.36 346.928 822.36 346.928L800.945 313.178C800.945 313.178 795.876 309.661 786.35 293.818C776.823 277.975 777.148 265.773 777.673 256.661C778.199 247.548 784.163 221.36 784.163 221.36C785.091 215.467 798.44 178.524 798.44 178.524C799.835 181.321 802.444 183.657 805.5 185.585C813.742 190.777 825.248 192.906 825.248 192.906C843.776 195.6 840.356 214.746 840.356 214.746C840.356 214.746 840.563 289.171 839.421 298.075C838.279 306.98 848.967 340.094 848.967 340.094Z" fill="#4C4C78"/>
<path opacity="0.1" d="M802.405 196.839L797.745 198.572L800.847 200.747L777.68 256.641C778.218 247.555 784.169 221.34 784.169 221.34C785.097 215.447 798.446 178.504 798.446 178.504C799.842 181.301 802.45 183.638 805.507 185.566L802.405 196.839Z" fill="black"/>
<path opacity="0.1" d="M807.992 296.414L831.692 290.307L834.8 299.932L810.582 305.838L807.992 296.414Z" fill="black"/>
<path opacity="0.1" d="M821.549 200.773C821.549 200.773 810.783 210.904 814.845 233.484C818.908 256.064 825.404 280.578 825.404 280.578L807.882 329.125C807.882 329.125 820.095 341.859 826.098 343.404L843.587 304.585C843.587 304.585 851.764 291.131 849.59 270.018C847.416 248.905 839.551 214.74 839.551 214.74C839.551 214.74 839.557 193.945 821.549 200.773Z" fill="black"/>
<path d="M822.374 200.773C822.374 200.773 811.601 210.904 815.65 233.484C819.7 256.064 826.202 280.578 826.202 280.578L808.681 329.125C808.681 329.125 820.894 341.859 826.897 343.404L844.419 304.585C844.419 304.585 852.595 291.131 850.421 270.018C848.247 248.905 840.382 214.74 840.382 214.74C840.382 214.74 840.382 193.945 822.374 200.773Z" fill="#4C4C78"/>
<path opacity="0.1" d="M809.264 330.157C809.264 330.157 822.925 349.07 821.893 354.106C820.861 359.143 816.857 356.449 816.857 356.449L811.477 349.07L806.643 335.265C806.643 335.265 807.116 329.307 809.264 330.157Z" fill="black"/>
<path opacity="0.1" d="M807.61 330.157C807.61 330.157 821.238 349.07 820.239 354.106C819.239 359.143 815.203 356.449 815.203 356.449L809.817 349.07L804.988 335.265C804.988 335.265 805.462 329.307 807.61 330.157Z" fill="black"/>
<path d="M808.44 330.157C808.44 330.157 822.068 349.07 821.062 354.106C820.056 359.143 816.026 356.449 816.026 356.449L810.647 349.07L805.818 335.265C805.818 335.265 806.286 329.307 808.44 330.157Z" fill="#474463"/>
</g>
<path d="M9.15527e-05 291.815C-0.0165863 309.506 5.18922 326.807 14.9649 341.551C24.7406 356.295 38.6511 367.826 54.9526 374.697C71.2541 381.568 89.2212 383.474 106.601 380.176C123.982 376.878 140.002 368.523 152.653 356.158C165.305 343.793 174.025 327.969 177.72 310.668C181.415 293.368 179.921 275.362 173.426 258.908C166.93 242.453 155.722 228.282 141.205 218.171C126.689 208.06 109.511 202.459 91.8252 202.07C91.5462 202.064 91.2672 202.058 90.9821 202.052C90.5818 202.046 90.1754 202.046 89.769 202.046C88.75 202.046 87.731 202.064 86.7181 202.101C84.486 202.174 82.2782 202.327 80.0946 202.562C78.833 202.695 77.5896 202.859 76.3461 203.041C76.2066 203.065 76.0611 203.083 75.9215 203.108C70.7904 203.899 65.7387 205.139 60.8246 206.814C43.0845 212.864 27.6815 224.312 16.7742 239.555C5.86678 254.798 0.0014801 273.072 9.15527e-05 291.815Z" fill="#00C1FF"/>
<path d="M161.081 291.443C160.683 290.814 160.052 290.369 159.326 290.206C158.6 290.043 157.839 290.175 157.211 290.573L121.666 313.082C121.038 313.48 120.593 314.111 120.43 314.837C120.267 315.563 120.399 316.324 120.797 316.952L161.081 291.443Z" fill="#D0CDE1"/>
<path d="M164.443 292.633L163.325 290.867C163.053 290.438 162.622 290.134 162.126 290.023C161.63 289.911 161.11 290.001 160.68 290.273L120.21 315.901C119.958 316.061 119.74 316.268 119.569 316.512C119.397 316.756 119.275 317.031 119.21 317.322C119.144 317.612 119.137 317.913 119.188 318.207C119.239 318.501 119.347 318.781 119.507 319.033L120.436 320.501L164.443 292.633Z" fill="#2F2E41"/>
<path d="M101.055 213.713C87.1017 213.713 75.7907 202.402 75.7907 188.449C75.7907 174.497 87.1017 163.186 101.055 163.186C115.007 163.186 126.318 174.497 126.318 188.449C126.318 202.402 115.007 213.713 101.055 213.713Z" fill="#FFB8B8"/>
<path d="M99.5143 206.319C99.5143 206.319 87.1905 225.729 90.2714 231.275C93.3524 236.821 102.903 251.917 102.903 251.917C102.903 251.917 60.3862 220.492 65.9318 213.713C65.9318 213.713 78.5638 202.93 79.1799 196.152L99.5143 206.319Z" fill="#FFB8B8"/>
<path d="M65.4704 378.26C85.967 383.984 107.828 382.276 127.187 373.438L125.246 321.578L125.1 317.545L125.045 316.235L124.979 314.306L124.93 313.075C124.93 313.075 124.851 313.069 124.7 313.062C124.287 313.032 123.335 312.965 121.97 312.887C120.387 312.796 118.258 312.68 115.777 312.577C115.189 312.553 114.583 312.529 113.958 312.498C100.893 312.013 80.4885 311.91 77.7894 315.847L77.4497 318.164L76.9038 321.906L75.7878 329.554C75.7878 329.554 63.0988 354.787 65.4704 378.26Z" fill="#2F2E41"/>
<path d="M42.2069 245.139L64.0324 293.427L73.5094 314.39L77.0217 322.163L127.857 321.547L122.62 286.116C130.014 267.014 112.453 259.312 112.453 259.312L97.664 243.552V246.063C97.664 246.063 83.1836 228.81 76.7136 218.951C70.2436 209.092 61.3088 212.789 61.3088 212.789C45.904 211.249 42.2069 245.139 42.2069 245.139Z" fill="#575A89"/>
<path opacity="0.2" d="M64.0332 293.427L73.5103 314.39C76.5542 308.696 78.8711 302.248 78.8711 298.44C78.8711 287.964 68.3959 293.51 68.3959 293.51C68.3959 293.51 76.8685 247.142 76.8685 233.277C76.8685 224.069 69.1908 264.937 64.0332 293.427Z" fill="black"/>
<path d="M72.401 296.899L118.307 295.975C118.307 295.975 151.89 298.748 146.96 312.304C142.031 325.86 115.226 312.304 115.226 312.304L61.6176 320.622L72.401 296.899Z" fill="#FFB8B8"/>
<path d="M63.7749 215.254C63.7749 215.254 79.7959 216.486 79.7959 230.351C79.7959 244.215 65.3154 293.51 65.3154 293.51C65.3154 293.51 75.7907 287.964 75.7907 298.44C75.7907 308.915 58.2292 339.416 56.3806 319.082C56.3806 319.082 29.8844 332.022 31.4249 307.683C32.9654 283.343 49.6025 231.891 49.6025 231.891C49.6025 231.891 51.4511 214.33 63.7749 215.254Z" fill="#575A89"/>
<path d="M100.214 185.702C101.983 183.989 101.951 181.102 103.377 179.095C105.616 175.943 110.277 176.154 114.105 176.698C116.649 177.06 119.231 177.432 121.592 178.438C122.648 178.873 123.59 179.547 124.341 180.408C125.093 181.268 125.634 182.292 125.923 183.397C126.223 184.639 126.884 181.116 127.556 176.554C128.245 171.898 127.439 167.144 125.253 162.977C123.067 158.809 119.615 155.443 115.393 153.363C115.343 153.339 115.293 153.314 115.244 153.29C110.914 151.186 106.379 149.328 101.593 148.806C96.8083 148.284 91.7023 149.229 87.9493 152.244C86.234 153.621 84.8388 155.39 82.9998 156.597C79.7688 158.719 75.6773 158.822 71.8379 159.269C67.4957 159.775 63.1436 160.837 59.395 163.086C55.6463 165.335 52.5408 168.884 51.4986 173.129C50.2829 178.081 52.267 183.936 57.1359 186.085C57.9862 186.442 58.7402 186.996 59.3366 187.699C63.3348 192.587 56.8803 195.261 55.9443 199.516C55.1632 203.066 58.577 206.28 62.078 207.257C68.5984 209.078 76.1884 205.452 78.869 199.235C80.0698 196.45 80.3432 193.37 80.6699 190.355C81.0439 186.903 90.0961 180.652 83.985 185.354C82.7991 186.242 81.8649 187.424 81.2743 188.783C79.4153 193.233 83.2736 195.759 85.343 198.936C86.4694 200.724 87.0725 202.791 87.0838 204.903C87.0951 207.015 86.5141 209.089 85.4069 210.888C90.771 208.085 93.4842 201.06 91.3965 195.379C90.8416 193.869 90.0004 192.473 89.4962 190.946C88.7093 188.562 89.4047 183.929 92.9231 184.869C95.4344 185.539 97.5805 188.25 100.214 185.702Z" fill="#2F2E41"/>
<path d="M359.11 114.823C359.107 131.002 354.72 146.878 346.417 160.764C338.113 174.65 326.203 186.027 311.951 193.686C310.882 194.266 309.797 194.821 308.695 195.352C296.465 201.276 283.048 204.342 269.458 204.318C255.869 204.293 242.463 201.179 230.254 195.211C228.149 194.183 226.094 193.073 224.089 191.88C222.05 190.686 220.07 189.402 218.147 188.043C205.505 179.154 195.379 167.143 188.756 153.179C182.133 139.215 179.238 123.774 180.354 108.36C181.469 92.9452 186.557 78.0821 195.121 65.2174C203.686 52.3526 215.436 41.9246 229.226 34.9484C234.674 32.1796 240.395 29.9856 246.297 28.4021C248.899 27.6977 251.545 27.1121 254.235 26.6453C259.315 25.7644 264.46 25.3236 269.615 25.3277C270.676 25.3277 271.728 25.3443 272.781 25.394C273.551 25.4106 274.322 25.4437 275.093 25.4935C283.149 25.975 291.103 27.5501 298.734 30.1754C299.389 30.3991 300.044 30.6311 300.69 30.8715C302.944 31.7001 305.148 32.6227 307.303 33.6392C322.78 40.8227 335.881 52.2821 345.061 66.6663C354.24 81.0504 359.115 97.7593 359.11 114.823Z" fill="#3F3D56"/>
<path d="M304.547 23.3057C296.405 4.09401 275.678 0.465685 275.678 0.465685C275.678 0.465685 255.721 -4.85835 239.055 20.4971C223.52 44.1305 203.487 66.2729 228.893 75.7061L235.604 61.6122L236.409 77.832C240.103 78.6014 243.837 79.168 247.593 79.5293C275.773 82.392 302.336 87.152 302.828 76.9681C303.482 63.43 312.381 41.7913 304.547 23.3057Z" fill="#2F2E41"/>
<path d="M232.177 179.881L231.514 185.201L230.254 195.211C228.149 194.183 226.094 193.073 224.089 191.88C222.05 190.686 220.07 189.402 218.147 188.043L218.346 182.88L218.57 177.154L227.768 179.002L232.177 179.881Z" fill="#FFB8B8"/>
<path d="M324.763 185.317C320.739 188.467 316.453 191.267 311.952 193.686L307.609 178.646L307.038 176.666L305.612 171.718L307.145 171.478L322.84 169L323.346 173.268L324.763 185.317Z" fill="#FFB8B8"/>
<path d="M275.691 62.9211C289.211 62.9211 300.17 51.9614 300.17 38.4419C300.17 24.9225 289.211 13.9628 275.691 13.9628C262.172 13.9628 251.212 24.9225 251.212 38.4419C251.212 51.9614 262.172 62.9211 275.691 62.9211Z" fill="#FFB8B8"/>
<path d="M258.919 47.9617C258.919 47.9617 260.732 78.7873 255.292 80.6005C249.852 82.4138 283.398 80.6005 283.398 80.6005C283.398 80.6005 278.865 61.5612 283.398 56.1214C287.931 50.6816 258.919 47.9617 258.919 47.9617Z" fill="#FFB8B8"/>
<path d="M283.851 75.614C283.851 75.614 260.279 73.8007 255.746 75.614C251.212 77.4273 238.52 86.4936 238.52 86.4936L244.866 143.612L296.544 154.491L304.704 142.705L312.864 125.479L309.237 103.72L308.33 91.0268L283.851 75.614Z" fill="#D0CDE1"/>
<path d="M233.987 90.1201C233.987 90.1201 222.201 92.84 221.294 101.906C220.387 110.973 220.387 133.639 221.294 137.265C222.201 140.892 221.294 142.705 220.387 143.612C219.481 144.518 217.667 142.705 219.481 145.425C221.294 148.145 221.294 148.145 220.387 150.865C219.481 153.585 216.761 149.958 218.574 154.491C220.387 159.024 221.294 159.931 220.387 160.838C219.481 161.744 216.761 182.597 216.761 182.597L232.174 185.317L247.586 131.825L233.987 90.1201Z" fill="#D0CDE1"/>
<path d="M304.705 90.1201C306.427 90.2162 308.091 90.7713 309.526 91.7279C310.961 92.6844 312.114 94.0076 312.865 95.5599C315.584 101 322.838 136.359 321.931 139.078C321.024 141.798 319.211 138.172 321.024 143.612C322.838 149.051 321.024 148.145 321.931 151.771C322.838 155.398 318.304 151.771 321.931 155.398C325.557 159.024 327.371 159.931 325.557 161.744C323.744 163.558 321.024 159.931 323.744 163.558C326.464 167.184 326.464 172.624 326.464 172.624L304.705 177.157L298.358 126.386L304.705 90.1201Z" fill="#D0CDE1"/>
<path d="M307.608 178.646L308.694 195.352C296.464 201.276 283.047 204.342 269.457 204.318C255.868 204.293 242.462 201.179 230.253 195.211C228.148 194.183 226.093 193.073 224.088 191.88C224.784 189.319 225.488 186.767 226.209 184.264C226.723 182.483 227.242 180.729 227.767 179.002C231.836 165.686 236.219 154.358 240.33 149.958C240.33 149.958 240.33 139.989 242.144 139.078C243.017 138.394 243.682 137.482 244.067 136.442C244.742 134.945 245.313 133.403 245.774 131.827L242.774 124.85L229.35 93.5925C228.968 92.6985 228.941 91.6923 229.275 90.7792C229.609 89.8661 230.279 89.1148 231.148 88.6786L235.598 86.4495C236.049 86.2257 236.539 86.0932 237.042 86.0596C237.544 86.0259 238.048 86.0919 238.524 86.2536C239.001 86.4153 239.441 86.6696 239.819 87.0018C240.197 87.3341 240.506 87.7378 240.727 88.1897L261.187 130.012L283.851 144.522L299.744 137.453L300.167 137.263C300.167 137.263 311.959 119.132 308.329 110.066C306.78 106.196 305.073 101.026 303.606 96.3603C302.752 93.6091 301.99 91.032 301.393 89.0101C301.299 88.6889 301.307 88.3466 301.414 88.0296C301.521 87.7126 301.723 87.4363 301.993 87.2381C302.262 87.0399 302.586 86.9295 302.921 86.9219C303.256 86.9142 303.584 87.0097 303.863 87.1953L306.954 89.2586C307.654 89.7286 308.209 90.3862 308.553 91.1563C308.696 91.4572 308.802 91.7744 308.868 92.101L315.58 124.576L306.515 143.61V161.741L307.144 171.478L307.476 176.574L307.608 178.646Z" fill="#2F2E41"/>
<path d="M299.942 16.3259L279.17 5.44562L250.486 9.89634L244.551 36.1085L259.324 35.5408L263.452 25.9102V35.3817L270.268 35.1199L274.225 19.788L276.698 36.1085L300.932 35.6146L299.942 16.3259Z" fill="#2F2E41"/>
<path d="M250.759 43.2018C252.261 43.2018 253.479 41.0708 253.479 38.442C253.479 35.8132 252.261 33.6821 250.759 33.6821C249.257 33.6821 248.039 35.8132 248.039 38.442C248.039 41.0708 249.257 43.2018 250.759 43.2018Z" fill="#FFB8B8"/>
<path d="M147.718 471.81C147.716 476.41 148.065 481.003 148.762 485.549C152.111 507.029 163.155 526.558 179.837 540.498C180.292 540.879 180.756 541.26 181.229 541.633C182.207 542.42 183.201 543.185 184.212 543.928C185.67 545.005 187.162 546.036 188.687 547.019C200.673 554.742 214.329 559.494 228.521 560.88C242.712 562.267 257.03 560.248 270.285 554.991C270.914 554.742 271.544 554.485 272.166 554.22C273.16 553.798 274.138 553.358 275.116 552.894C277.593 551.742 280.01 550.475 282.366 549.091C284.794 547.674 287.142 546.149 289.41 544.517C290.446 543.771 291.449 543.017 292.451 542.229L292.468 542.221C305.727 531.808 315.784 517.871 321.487 502.006V501.998C328.304 482.911 328.449 462.078 321.899 442.898C315.35 423.718 302.492 407.324 285.424 396.394C284.637 395.897 283.841 395.399 283.038 394.935C282.209 394.422 281.364 393.941 280.51 393.477C269.023 387.103 256.264 383.358 243.154 382.514C241.19 382.381 239.21 382.315 237.213 382.315C237.113 382.315 237.014 382.315 236.915 382.323C234.23 382.323 231.578 382.448 228.959 382.696C206.748 384.753 186.104 395.031 171.076 411.516C156.048 428 147.717 449.503 147.718 471.81Z" fill="#3F3D56"/>
<path d="M329.452 502.544C329.452 502.544 355.59 475.534 362.56 492.089C369.53 508.643 336.422 517.355 336.422 517.355L329.452 502.544Z" fill="#FFB8B8"/>
<path d="M181.229 541.633C182.206 542.42 183.201 543.185 184.212 543.928C185.67 545.005 187.162 546.036 188.686 547.019C200.673 554.742 214.329 559.494 228.521 560.88C242.712 562.267 257.03 560.248 270.284 554.991C270.914 554.742 271.544 554.485 272.165 554.22C273.16 553.797 274.138 553.358 275.115 552.894L272.82 549.596C271.156 548.038 269.292 546.709 267.276 545.643C251.573 537.117 221.999 537.382 201.986 538.782C199.136 538.981 196.484 539.205 194.098 539.429C192.606 539.561 191.214 539.702 189.946 539.835C189.432 539.893 188.943 539.942 188.479 539.992C184.013 540.489 181.336 540.879 181.336 540.879L181.229 541.633Z" fill="#2F2E41"/>
<path d="M258.029 420.82C271.857 420.82 283.067 409.61 283.067 395.782C283.067 381.954 271.857 370.744 258.029 370.744C244.201 370.744 232.991 381.954 232.991 395.782C232.991 409.61 244.201 420.82 258.029 420.82Z" fill="#FFB8B8"/>
<path d="M241.454 404.091L223.157 423.259L217.93 452.882L264.107 460.723L260.622 433.714C260.622 433.714 261.493 420.645 264.978 418.031C268.463 415.417 241.454 404.091 241.454 404.091Z" fill="#FFB8B8"/>
<path d="M187.436 543.497C188.963 543.007 190.515 542.594 192.084 542.263C196.035 541.404 200.052 540.891 204.092 540.729C213.651 540.226 223.188 542.072 231.868 546.107C244.563 552.198 259.628 553.855 269.986 554.17C270.741 554.195 271.47 554.212 272.166 554.22C273.16 553.797 274.138 553.358 275.116 552.894C277.594 551.742 280.01 550.475 282.367 549.091L282.334 546.025L281.787 485.367V485.359L281.53 456.364L264.981 437.197L260.73 432.407L258.708 434.222L246.685 445.044L229.158 428.811L223.159 423.259L194.38 520.137L190.667 532.634L188.48 539.992L188.14 541.119V541.127L187.436 543.497Z" fill="#575A89"/>
<path d="M254.3 459.057C254.342 463.409 254.707 467.752 255.394 472.05C258.377 491.101 260.937 522.773 267.277 545.643C268.105 548.66 269.008 551.51 269.986 554.17L270.285 554.991C270.914 554.742 271.544 554.485 272.166 554.22C273.16 553.798 274.138 553.358 275.116 552.894C277.593 551.742 280.01 550.475 282.366 549.091C284.794 547.674 287.142 546.149 289.41 544.517L289.145 543.472V543.464L285.018 526.941C285.018 526.941 287.67 513.11 289.791 497.639V497.631C292.227 479.923 293.968 460.085 290.247 456.364L261.053 429.656L261.045 429.664C260.135 431.113 259.354 432.638 258.708 434.222C256.719 438.937 254.2 447.257 254.3 459.057Z" fill="#D0CDE1"/>
<path d="M163.471 522.524C168.083 529.231 173.589 535.278 179.837 540.497C180.292 540.879 180.757 541.26 181.229 541.633C182.207 542.42 183.201 543.185 184.212 543.928C185.67 545.005 187.162 546.036 188.687 547.019C189.814 545.453 190.949 543.862 192.084 542.263C192.755 541.326 193.427 540.381 194.098 539.428C195.159 537.92 196.219 536.404 197.263 534.879C197.396 534.697 197.52 534.515 197.645 534.332C198.97 532.418 200.28 530.496 201.556 528.581C210.969 514.519 218.775 501.02 219.67 492.957C220.748 483.303 222.927 468.371 225.139 454.11C226.565 444.845 228.007 435.863 229.158 428.811C230.551 420.243 231.512 414.508 231.512 414.508C231.512 414.508 185.853 409.942 179.456 414.425H179.447C179.264 414.531 179.104 414.674 178.98 414.845C178.856 415.017 178.769 415.213 178.726 415.42C178.03 420.276 181.759 465.404 183.301 483.635V483.643C183.698 488.317 183.955 491.217 183.955 491.217C183.955 491.217 181.345 494.706 177.516 500.299C173.613 506.009 168.434 513.906 163.471 522.524Z" fill="#D0CDE1"/>
<path d="M287.631 480.762L291.988 514.741L330.323 498.187L342.521 523.454L279.79 546.978C279.79 546.978 268.464 486.861 287.631 480.762Z" fill="#D0CDE1"/>
<path d="M283.044 400.364C283.044 400.364 286.446 396.69 286.102 392.09C285.875 389.474 286.042 386.838 286.598 384.271C286.598 384.271 285.533 376.743 283.961 372.379C282.389 368.016 283.714 366.497 276.955 364.115C270.196 361.732 274.499 353.117 254.571 359.984C253.813 360.749 252.846 361.273 251.791 361.489C250.735 361.705 249.64 361.603 248.642 361.197C244.963 359.85 242.746 364.904 242.746 364.904C242.746 364.904 240.451 363.021 239.164 364.979C237.876 366.936 231.648 362.475 229.364 376.715C227.081 390.956 234.921 403.655 234.921 403.655C234.921 403.655 236.021 380.867 248.962 380.454C261.904 380.041 276.54 375.138 278.355 384.735C279.304 390.109 280.877 395.355 283.044 400.364Z" fill="#2F2E41"/>
<path d="M179.837 540.498C180.293 540.879 180.757 541.26 181.229 541.633C182.207 542.42 183.201 543.185 184.212 543.928C185.671 545.005 187.162 546.036 188.687 547.019C196.029 551.769 204.032 555.41 212.436 557.825C214.491 552.554 209.569 546 204.092 540.73C203.396 540.058 202.683 539.404 201.987 538.782C200.33 537.315 198.697 535.99 197.264 534.879C197.197 534.829 197.139 534.788 197.081 534.738C194.372 532.65 192.408 531.366 192.408 531.366L190.668 532.634L179.837 540.498Z" fill="#FFB8B8"/>
<path d="M148.762 485.549C152.111 507.029 163.155 526.558 179.836 540.498C180.292 540.879 180.756 541.26 181.229 541.633C182.206 542.42 183.201 543.185 184.212 543.928L188.14 541.127V541.119L189.946 539.835L197.081 534.738L197.644 534.332L203.122 530.421L201.556 528.582L194.379 520.137L177.516 500.299L173.497 495.576L183.3 483.643V483.635L193.534 471.18L184.825 415.42C183.176 414.556 181.304 414.21 179.455 414.426H179.447C177.475 414.765 175.461 416.124 174.367 419.77C172.387 426.375 156.394 466.507 148.762 485.549Z" fill="#D0CDE1"/>
<defs>
<linearGradient id="paint0_linear" x1="754.409" y1="562.972" x2="754.409" y2="116.522" gradientUnits="userSpaceOnUse">
<stop stop-color="#808080" stop-opacity="0.25"/>
<stop offset="0.54" stop-color="#808080" stop-opacity="0.12"/>
<stop offset="1" stop-color="#808080" stop-opacity="0.1"/>
</linearGradient>
<clipPath id="clip0">
<rect width="677.593" height="540.359" fill="white" transform="translate(255.408 40.0266)"/>
</clipPath>
</defs>
</svg>
