<?xml version="1.0" encoding="UTF-8"?>
<svg data-bbox="0.869 0.361 57.131 59.046" xmlns="http://www.w3.org/2000/svg" viewBox="0 0 58 60" height="60" width="58" data-type="color">
    <g>
        <path fill="#444444" d="M.87 15.117h14.3V.361H.869v14.756zm4.783-4.913v-4.93h4.734v4.93H5.653z" clip-rule="evenodd" fill-rule="evenodd" data-color="1"/>
        <path fill="#444444" d="M22.284 37.262h14.302V22.506H22.284v14.756zm4.784-4.913v-4.93h4.734v4.93h-4.734z" clip-rule="evenodd" fill-rule="evenodd" data-color="1"/>
        <path fill="#444444" d="M22.284 15.117h14.302V.361H22.284v14.756zm4.784-4.913v-4.93h4.734v4.93h-4.734z" clip-rule="evenodd" fill-rule="evenodd" data-color="1"/>
        <path fill="#444444" d="M43.699 37.262H58V22.506H43.699v14.756zm4.784-4.913v-4.93h4.734v4.93h-4.734z" clip-rule="evenodd" fill-rule="evenodd" data-color="1"/>
        <path fill="#444444" d="M43.699 15.117H58V.361H43.699v14.756zm4.784-4.913v-4.93h4.734v4.93h-4.734z" clip-rule="evenodd" fill-rule="evenodd" data-color="1"/>
        <path fill="#444444" d="M43.699 59.407H58V44.651H43.699v14.756zm4.784-4.913v-4.93h4.734v4.93h-4.734z" clip-rule="evenodd" fill-rule="evenodd" data-color="1"/>
        <path fill="#00C1FF" d="M5.628 22.506v14.756h4.784V22.506H5.628z" data-color="2"/>
        <path fill="#00C1FF" d="M15.171 27.427H.869v4.914h14.302v-4.914z" data-color="2"/>
        <path fill="#00C1FF" d="M5.628 44.651v14.756h4.784V44.651H5.628z" data-color="2"/>
        <path fill="#00C1FF" d="M15.171 49.573H.869v4.913h14.302v-4.913z" data-color="2"/>
        <path fill="#00C1FF" d="M27.043 44.651v14.756h4.784V44.651h-4.784z" data-color="2"/>
        <path fill="#00C1FF" d="M36.586 49.573H22.284v4.913h14.302v-4.913z" data-color="2"/>
    </g>
</svg>
