<svg viewBox="0 0 624 389" fill="none" xmlns="http://www.w3.org/2000/svg">
<g clip-path="url(#clip0)">
<path d="M474.37 346.108C552.4 346.108 615.656 282.829 615.656 204.771C615.656 126.713 552.4 63.4343 474.37 63.4343C396.34 63.4343 333.083 126.713 333.083 204.771C333.083 282.829 396.34 346.108 474.37 346.108Z" fill="#F2F2F2"/>
<path d="M76.6541 107.95C106.453 107.95 130.61 83.7847 130.61 53.9751C130.61 24.1655 106.453 0 76.6541 0C46.8551 0 22.6982 24.1655 22.6982 53.9751C22.6982 83.7847 46.8551 107.95 76.6541 107.95Z" fill="#00C1FF"/>
<path d="M173.441 289.907C251.471 289.907 314.727 226.628 314.727 148.57C314.727 70.5121 251.471 7.23352 173.441 7.23352C95.4105 7.23352 32.1544 70.5121 32.1544 148.57C32.1544 226.628 95.4105 289.907 173.441 289.907Z" fill="#F2F2F2"/>
<path d="M166.766 297.698C252.476 297.698 321.959 293.961 321.959 289.351C321.959 284.741 252.476 281.004 166.766 281.004C81.0555 281.004 11.5734 284.741 11.5734 289.351C11.5734 293.961 81.0555 297.698 166.766 297.698Z" fill="#3F3D56"/>
<path opacity="0.1" d="M135.616 295.395C199.822 295.395 251.872 292.818 251.872 289.639C251.872 286.46 199.822 283.883 135.616 283.883C71.4102 283.883 19.3608 286.46 19.3608 289.639C19.3608 292.818 71.4102 295.395 135.616 295.395Z" fill="black"/>
<path d="M468.808 356.681C554.518 356.681 624 352.57 624 347.499C624 342.429 554.518 338.318 468.808 338.318C383.097 338.318 313.615 342.429 313.615 347.499C313.615 352.57 383.097 356.681 468.808 356.681Z" fill="#3F3D56"/>
<path opacity="0.1" d="M437.658 354.148C501.864 354.148 553.913 351.313 553.913 347.816C553.913 344.319 501.864 341.484 437.658 341.484C373.452 341.484 321.402 344.319 321.402 347.816C321.402 351.313 373.452 354.148 437.658 354.148Z" fill="black"/>
<path d="M223.001 331.084C277.697 331.084 322.037 328.842 322.037 326.076C322.037 323.311 277.697 321.068 223.001 321.068C168.305 321.068 123.965 323.311 123.965 326.076C123.965 328.842 168.305 331.084 223.001 331.084Z" fill="#3F3D56"/>
<path d="M47.7832 311.799C74.1731 311.799 95.5664 310.717 95.5664 309.383C95.5664 308.048 74.1731 306.967 47.7832 306.967C21.3933 306.967 0 308.048 0 309.383C0 310.717 21.3933 311.799 47.7832 311.799Z" fill="#3F3D56"/>
<path d="M530.062 389C579.177 389 618.994 386.987 618.994 384.503C618.994 382.019 579.177 380.006 530.062 380.006C480.946 380.006 441.13 382.019 441.13 384.503C441.13 386.987 480.946 389 530.062 389Z" fill="#3F3D56"/>
<path d="M520.538 240.94H342.54V346.665H520.538V240.94Z" fill="#3F3D56"/>
<path d="M399.833 334.979C421.952 334.979 439.883 317.042 439.883 294.915C439.883 272.789 421.952 254.851 399.833 254.851C377.714 254.851 359.783 272.789 359.783 294.915C359.783 317.042 377.714 334.979 399.833 334.979Z" fill="#00C1FF"/>
<path d="M465.47 257.634H452.12V270.988H465.47V257.634Z" fill="#6C63FF"/>
<path opacity="0.5" d="M482.158 257.634H468.808V270.988H482.158V257.634Z" fill="#6C63FF"/>
<path opacity="0.2" d="M498.845 257.634H485.495V270.988H498.845V257.634Z" fill="#6C63FF"/>
<path d="M465.47 274.327H452.12V287.682H465.47V274.327Z" fill="#2F2E41"/>
<path opacity="0.5" d="M482.158 274.327H468.808V287.682H482.158V274.327Z" fill="#2F2E41"/>
<path opacity="0.2" d="M498.845 274.327H485.495V287.682H498.845V274.327Z" fill="#2F2E41"/>
<path d="M465.47 291.02H452.12V304.375H465.47V291.02Z" fill="#FF6584"/>
<path opacity="0.5" d="M482.158 291.02H468.808V304.375H482.158V291.02Z" fill="#FF6584"/>
<path opacity="0.2" d="M498.845 291.02H485.495V304.375H498.845V291.02Z" fill="#FF6584"/>
<path opacity="0.5" d="M399.833 254.851V334.979C421.952 334.979 440.995 317.042 440.995 294.915C440.995 272.789 421.952 254.851 399.833 254.851Z" fill="#3F3D56"/>
<path d="M558.641 248.452C558.641 248.452 582.004 259.025 573.66 271.267C565.316 283.508 540.285 306.879 539.729 311.887C539.173 316.895 535.835 321.347 535.835 321.347C535.835 321.347 524.71 309.661 525.823 308.548C526.935 307.435 538.06 296.863 538.616 294.081C539.173 291.299 555.86 269.597 555.86 269.597L540.841 256.243L558.641 248.452Z" fill="#FFB9B9"/>
<path opacity="0.1" d="M558.641 248.452C558.641 248.452 582.004 259.025 573.66 271.267C565.316 283.508 540.285 306.879 539.729 311.887C539.173 316.895 535.835 321.347 535.835 321.347C535.835 321.347 524.71 309.661 525.823 308.548C526.935 307.435 538.06 296.863 538.616 294.081C539.173 291.299 555.86 269.597 555.86 269.597L540.841 256.243L558.641 248.452Z" fill="black"/>
<path d="M529.16 271.823C529.16 271.823 545.291 278.5 544.179 289.073C543.066 299.645 563.647 329.693 563.647 329.693C563.647 329.693 565.872 336.927 565.316 339.153C564.76 341.379 579.778 340.822 579.778 340.822V335.814C579.778 335.814 568.097 315.782 566.985 310.218C565.872 304.653 559.197 282.952 559.197 282.952C559.197 282.952 556.972 263.476 545.848 263.476C542.609 263.476 539.415 264.231 536.519 265.679C533.623 267.128 531.103 269.231 529.16 271.823Z" fill="#FFB9B9"/>
<path d="M529.995 221.465C529.995 221.465 563.369 248.731 562.257 250.956C561.144 253.182 545.013 261.529 542.232 262.085C539.451 262.642 519.772 221.465 519.772 221.465H529.995Z" fill="#2F2E41"/>
<path opacity="0.1" d="M529.995 221.465C529.995 221.465 563.369 248.731 562.257 250.956C561.144 253.182 545.013 261.529 542.232 262.085C539.451 262.642 519.772 221.465 519.772 221.465H529.995Z" fill="black"/>
<path d="M493.838 227.029C493.838 227.029 490.501 242.053 499.401 248.174C508.301 254.295 523.319 278.222 524.988 278.222C526.657 278.222 550.575 265.424 549.463 263.198C548.35 260.972 536.113 241.497 536.113 241.497L532.219 220.908C532.219 220.908 498.288 219.796 493.838 227.029Z" fill="#2F2E41"/>
<path d="M529.995 178.062L535.001 210.336L543.901 233.15C543.901 233.15 557.251 247.061 549.463 248.174C541.676 249.287 537.226 233.15 537.226 233.15L529.995 219.795V178.062Z" fill="#FFB9B9"/>
<path opacity="0.1" d="M529.995 178.062L535.001 210.336L543.901 233.15C543.901 233.15 557.251 247.061 549.463 248.174C541.676 249.287 537.226 233.15 537.226 233.15L529.995 219.795V178.062Z" fill="black"/>
<path d="M511.36 142.172C511.36 142.172 511.36 153.857 507.466 154.97C503.573 156.083 523.041 171.107 523.041 171.107C523.041 171.107 520.816 151.631 528.604 146.623L511.36 142.172Z" fill="#FFB9B9"/>
<path opacity="0.1" d="M511.36 142.172C511.36 142.172 511.36 153.857 507.466 154.97C503.573 156.083 523.041 171.107 523.041 171.107C523.041 171.107 520.816 151.631 528.604 146.623L511.36 142.172Z" fill="black"/>
<path d="M520.26 151.631C527.326 151.631 533.054 145.901 533.054 138.833C533.054 131.765 527.326 126.035 520.26 126.035C513.195 126.035 507.467 131.765 507.467 138.833C507.467 145.901 513.195 151.631 520.26 151.631Z" fill="#FFB9B9"/>
<path d="M520.816 165.542C520.816 165.542 509.135 151.075 507.466 151.631C505.798 152.188 493.56 164.429 492.448 168.324C491.335 172.22 489.11 200.042 490.779 205.606C492.448 211.171 492.448 225.638 491.892 226.751C491.335 227.864 487.998 230.646 491.335 230.646C494.673 230.646 506.354 222.3 514.141 223.969C521.929 225.638 532.498 223.412 533.054 222.3C533.61 221.187 532.498 192.252 533.054 190.026C533.61 187.8 531.941 176.671 531.385 174.445C530.829 172.22 530.829 163.316 525.266 161.091L522.894 160.856L522.762 166.36L520.816 165.542Z" fill="#00C1FF"/>
<path d="M496.342 194.477C496.342 194.477 497.454 211.727 505.798 218.961C514.142 226.195 531.941 238.436 533.054 240.662C534.166 242.888 544.735 254.573 546.96 249.565C547.606 248.004 547.761 246.283 547.406 244.631C547.083 242.99 546.428 241.431 545.48 240.052C544.533 238.673 543.314 237.502 541.897 236.611L536.948 233.428L512.473 207.832L511.36 194.477H496.342Z" fill="#FFB9B9"/>
<path d="M528.326 306.601C528.326 306.601 521.929 305.21 519.704 309.105C517.479 313 521.929 323.572 521.929 323.572C521.929 323.572 534.723 350.282 536.948 346.943C539.173 343.604 535.279 331.363 535.279 331.363C535.279 331.363 540.841 319.121 538.616 318.564C536.391 318.008 528.326 313.278 528.326 306.601Z" fill="#2F2E41"/>
<path d="M567.541 338.596C567.541 338.596 564.203 336.927 563.647 338.596C563.091 340.266 559.753 348.612 563.647 349.725C567.541 350.838 605.922 351.951 604.809 349.725C603.697 347.499 597.578 344.717 593.684 343.604C589.791 342.491 579.778 334.145 579.778 334.145C579.778 334.145 574.216 341.379 567.541 338.596Z" fill="#2F2E41"/>
<path d="M533.148 128.675C532.908 127.868 532.379 127.177 531.662 126.735C531.699 125.87 531.593 125.005 531.348 124.175C530.531 121.757 528.594 121.896 526.767 120.827C525.975 120.363 526.024 119.953 525.611 119.192C525.07 118.193 524.26 117.367 523.273 116.806C522.101 116.059 520.864 115.289 519.477 115.195C516.563 114.996 514.329 117.738 511.543 118.618C510.316 119.006 508.997 119.022 507.762 119.389C506.528 119.755 505.297 120.631 505.113 121.905C505.028 122.494 505.178 123.098 505.092 123.686C504.921 124.855 503.895 125.674 503.208 126.636C501.69 128.763 501.864 131.767 503.078 134.081C503.334 134.56 503.627 135.018 503.953 135.452C504.055 136.546 504.369 137.609 504.878 138.582C506.092 140.896 508.181 142.626 510.363 144.062C510.184 143.295 510.076 142.513 510.039 141.725C510.009 141.463 510.043 141.197 510.139 140.951C510.382 140.443 511.024 140.308 511.514 140.03C512.528 139.453 512.926 138.177 512.955 137.011C512.984 135.844 512.737 134.676 512.859 133.515C512.864 133.248 512.925 132.986 513.037 132.744C513.15 132.502 513.312 132.286 513.513 132.11C513.887 131.897 514.315 131.795 514.745 131.816C516.823 131.732 518.994 131.693 520.827 130.711C521.418 130.318 522.053 129.996 522.72 129.753C524.277 129.346 525.869 130.438 526.767 131.775C527.665 133.112 528.112 134.702 528.94 136.083C529.769 137.464 531.2 138.695 532.801 138.532C532.891 138.532 532.98 138.513 533.063 138.476C533.145 138.44 533.219 138.386 533.279 138.319C533.348 138.195 533.379 138.053 533.367 137.911L533.457 131.788C533.531 130.74 533.427 129.688 533.148 128.675Z" fill="#2F2E41"/>
<path d="M501.348 166.099C501.348 166.099 513.585 171.663 513.029 183.348C512.473 195.034 516.366 196.147 506.91 197.26C497.454 198.372 495.229 197.26 494.673 198.372C494.116 199.485 490.779 172.776 493.004 169.994C495.229 167.212 501.348 166.099 501.348 166.099Z" fill="#00C1FF"/>
<path d="M255.209 71.7813C265.04 71.7813 273.009 63.8091 273.009 53.975C273.009 44.1409 265.04 36.1688 255.209 36.1688C245.378 36.1688 237.409 44.1409 237.409 53.975C237.409 63.8091 245.378 71.7813 255.209 71.7813Z" fill="#2F2E41"/>
<path d="M267.168 249.009L257.156 276.275C257.156 276.275 248.812 282.952 253.818 285.178C258.824 287.403 268.837 282.952 268.837 282.952L276.624 262.92L275.512 249.009H267.168Z" fill="#2F2E41"/>
<path opacity="0.1" d="M267.168 249.009L257.156 276.275C257.156 276.275 248.812 282.952 253.818 285.178C258.824 287.403 268.837 282.952 268.837 282.952L276.624 262.92L275.512 249.009H267.168Z" fill="black"/>
<path d="M268.002 87.3617L276.346 88.4746C276.346 88.4746 280.24 119.079 278.571 121.305C276.902 123.531 268.559 132.434 265.221 130.208C261.884 127.982 268.002 87.3617 268.002 87.3617Z" fill="#00C1FF"/>
<path d="M188.181 143.284C188.181 143.284 176.5 148.292 174.275 148.849C172.05 149.405 168.713 154.97 172.606 156.083C176.5 157.196 191.519 146.067 191.519 146.067L188.181 143.284Z" fill="#A0616A"/>
<path d="M271.062 260.138L277.181 282.952C277.181 282.952 277.737 291.298 280.518 291.855C283.3 292.411 291.643 289.073 291.643 287.96C291.643 286.847 288.306 277.944 288.306 277.944C288.306 277.944 288.306 271.266 284.968 268.484C281.631 265.702 278.624 256.382 278.624 256.382L271.062 260.138Z" fill="#2F2E41"/>
<path d="M278.85 207.832C279.973 210.453 279.834 229.466 278.605 242.12C278.01 248.269 277.159 252.915 276.068 253.46L268.097 251.468L264.943 250.678L264.86 243.756L264.387 205.606L254.931 166.099V156.083L278.85 158.308L282.643 164.268L282.743 164.429C282.743 164.429 277.181 203.937 278.85 207.832Z" fill="#2F2E41"/>
<path opacity="0.1" d="M273.843 220.074C275.034 221.86 277.02 232.555 278.605 242.12C278.01 248.269 277.159 252.915 276.068 253.46L268.097 251.468C267.975 251.212 267.853 250.945 267.725 250.678C266.707 248.541 265.75 246.182 264.86 243.756L264.387 205.606L254.931 166.099V156.083L278.85 158.308L282.643 164.268L260.493 162.76L265.5 184.461L271.618 207.276C271.618 207.276 271.618 216.735 273.843 220.074Z" fill="black"/>
<path d="M234.35 133.825C234.35 133.825 226.562 151.075 237.687 175.002C244.571 189.892 250.698 205.121 256.043 220.63C256.043 220.63 259.937 238.993 265.5 250.678C271.062 262.363 269.95 262.92 269.95 262.92L278.85 257.912C278.85 257.912 273.843 223.412 271.618 220.074C269.393 216.735 269.393 207.275 269.393 207.275L263.275 184.461L258.268 162.76L282.743 164.429C282.743 164.429 282.743 132.712 271.618 126.591L234.35 133.825Z" fill="#2F2E41"/>
<path d="M243.528 62.3218C243.528 62.3218 243.528 71.2249 240.746 71.7813C237.965 72.3378 232.403 72.3378 230.734 75.12C229.065 77.9022 243.528 114.628 243.528 114.628L258.546 105.168L263.552 80.128C263.552 80.128 256.321 75.6764 256.321 73.4507V63.4347L243.528 62.3218Z" fill="#A0616A"/>
<path opacity="0.1" d="M243.528 62.3218C243.528 62.3218 243.528 71.2249 240.746 71.7813C237.965 72.3378 232.403 72.3378 230.734 75.12C229.065 77.9022 243.528 114.628 243.528 114.628L258.546 105.168L263.552 80.128C263.552 80.128 256.321 75.6764 256.321 73.4507V63.4347L243.528 62.3218Z" fill="black"/>
<path d="M252.15 72.0595C259.523 72.0595 265.5 66.0805 265.5 58.7049C265.5 51.3293 259.523 45.3502 252.15 45.3502C244.777 45.3502 238.8 51.3293 238.8 58.7049C238.8 66.0805 244.777 72.0595 252.15 72.0595Z" fill="#A0616A"/>
<path d="M245.197 103.499C245.197 103.499 240.191 71.7812 239.078 71.7812C237.966 71.7812 222.391 75.1199 221.278 75.6764C220.166 76.2328 216.272 81.2408 216.272 81.2408L224.059 103.499C224.059 103.499 227.397 119.079 229.622 121.861C231.847 124.643 236.297 132.434 234.072 133.547C231.847 134.659 229.622 136.329 231.847 136.329C234.072 136.329 252.428 132.99 253.54 134.659C254.653 136.329 273.009 128.539 273.009 127.982C273.009 127.426 270.784 101.273 270.784 101.273L276.347 88.4746L259.659 76.7892L245.197 103.499Z" fill="#00C1FF"/>
<path d="M221.834 78.4586L216.272 81.2408C216.272 81.2408 200.697 116.853 199.585 117.41C198.472 117.966 192.91 128.539 192.353 130.764C191.797 132.99 190.685 140.224 189.016 141.337C188.121 141.945 187.192 142.502 186.235 143.006C186.235 143.006 189.572 148.571 191.241 148.571C192.91 148.571 198.472 140.78 198.472 140.78C198.472 140.78 210.709 148.571 214.047 142.45C217.384 136.329 225.728 97.3777 225.728 97.3777L221.834 78.4586Z" fill="#00C1FF"/>
<path d="M265.499 95.4302C265.499 95.4302 257.712 76.5111 253.262 78.7369C248.812 80.9626 256.599 94.3173 261.606 96.5431L265.499 95.4302Z" fill="#A0616A"/>
<path opacity="0.1" d="M257.712 95.9867L265.517 94.2218L267.168 102.664C267.168 102.664 274.4 115.462 272.731 121.027C271.062 126.591 261.05 135.494 257.712 130.486C254.375 125.478 251.594 117.688 253.819 113.236C256.044 108.785 259.381 98.2125 257.712 95.9867Z" fill="black"/>
<path d="M259.381 94.8738L267.185 93.1089L268.837 101.551C268.837 101.551 276.068 114.349 274.4 119.914C272.731 125.478 262.718 134.381 259.381 129.373C256.043 124.365 253.262 116.575 255.487 112.124C257.712 107.672 261.05 97.0996 259.381 94.8738Z" fill="#00C1FF"/>
<path d="M267.854 56.0236C269.353 52.8233 265.155 47.6924 258.479 44.5636C251.802 41.4347 245.175 41.4927 243.676 44.693C242.177 47.8934 246.375 53.0242 253.051 56.1531C259.728 59.282 266.356 59.224 267.854 56.0236Z" fill="#2F2E41"/>
<path d="M265.778 46.7413C270.079 46.7413 273.565 43.2535 273.565 38.9511C273.565 34.6487 270.079 31.1609 265.778 31.1609C261.477 31.1609 257.99 34.6487 257.99 38.9511C257.99 43.2535 261.477 46.7413 265.778 46.7413Z" fill="#2F2E41"/>
<path d="M258.546 36.1689C258.547 34.2475 259.257 32.394 260.54 30.9645C261.823 29.5351 263.59 28.6305 265.499 28.4247C264.412 28.3059 263.312 28.4176 262.27 28.7526C261.229 29.0876 260.269 29.6384 259.455 30.369C258.64 31.0997 257.989 31.9938 257.543 32.9931C257.097 33.9924 256.866 35.0745 256.866 36.1689C256.866 37.2633 257.097 38.3454 257.543 39.3447C257.989 40.344 258.64 41.2381 259.455 41.9687C260.269 42.6994 261.229 43.2501 262.27 43.5851C263.312 43.9201 264.412 44.0319 265.499 43.9131C263.59 43.7072 261.823 42.8027 260.54 41.3732C259.257 39.9438 258.547 38.0903 258.546 36.1689Z" fill="#2F2E41"/>
<path d="M230.734 154.135H36.0482V289.351H230.734V154.135Z" fill="#3F3D56"/>
<path d="M77.2104 167.49H51.623V193.086H77.2104V167.49Z" fill="#F2F2F2"/>
<path d="M77.2104 209.223H51.623V234.819H77.2104V209.223Z" fill="#00C1FF"/>
<path d="M77.2104 250.956H51.623V276.553H77.2104V250.956Z" fill="#F2F2F2"/>
<path d="M211.266 175.558H89.4478V177.784H211.266V175.558Z" fill="#F2F2F2"/>
<path d="M127.272 182.792H89.4478V185.018H127.272V182.792Z" fill="#F2F2F2"/>
<path d="M211.266 217.292H89.4478V219.517H211.266V217.292Z" fill="#F2F2F2"/>
<path d="M127.272 224.525H89.4478V226.751H127.272V224.525Z" fill="#F2F2F2"/>
<path d="M211.266 259.025H89.4478V261.251H211.266V259.025Z" fill="#F2F2F2"/>
<path d="M127.272 266.259H89.4478V268.484H127.272V266.259Z" fill="#F2F2F2"/>
<path d="M550.575 372.224C550.575 383.551 543.845 387.506 535.541 387.506C535.349 387.506 535.156 387.503 534.965 387.499C534.581 387.49 534.199 387.472 533.822 387.446C526.328 386.916 520.507 382.758 520.507 372.224C520.507 361.324 534.43 347.569 535.479 346.549L535.48 346.548C535.52 346.507 535.541 346.488 535.541 346.488C535.541 346.488 550.575 360.898 550.575 372.224Z" fill="#00C1FF"/>
<path d="M534.993 385.773L540.492 378.087L534.98 386.617L534.966 387.499C534.581 387.49 534.199 387.472 533.823 387.446L534.415 376.115L534.411 376.026L534.421 376.011L534.477 374.94L528.951 366.389L534.494 374.137L534.508 374.364L534.955 365.802L530.224 356.967L535.013 364.3L535.479 346.549L535.481 346.488V346.548L535.403 360.545L540.113 354.996L535.384 361.751L535.259 369.416L539.658 362.059L535.241 370.545L535.172 374.807L541.555 364.566L535.147 376.293L534.993 385.773Z" fill="#3F3D56"/>
<path d="M62.7476 294.878C62.7476 306.205 56.0171 310.16 47.7133 310.16C47.5209 310.16 47.3286 310.157 47.1377 310.153C46.753 310.144 46.3711 310.126 45.9947 310.1C38.5003 309.57 32.679 305.412 32.679 294.878C32.679 283.978 46.6021 270.223 47.651 269.203L47.6524 269.202C47.6925 269.161 47.7133 269.142 47.7133 269.142C47.7133 269.142 62.7476 283.552 62.7476 294.878Z" fill="#00C1FF"/>
<path d="M47.1657 308.427L52.6647 300.741L47.1519 309.271L47.138 310.153C46.7533 310.145 46.3714 310.127 45.9951 310.1L46.5873 298.769L46.5832 298.68L46.5928 298.665L46.6496 297.594L41.1229 289.043L46.6662 296.791L46.68 297.018L47.127 288.456L42.396 279.621L47.1851 286.955L47.6514 269.203L47.6528 269.142V269.202L47.5753 283.199L52.2855 277.65L47.5559 284.405L47.4314 292.071L51.8303 284.713L47.4134 293.199L47.3442 297.461L53.7274 287.22L47.3193 298.948L47.1657 308.427Z" fill="#3F3D56"/>
</g>
<defs>
<clipPath id="clip0">
<rect width="624" height="389" fill="white"/>
</clipPath>
</defs>
</svg>
