<svg viewBox="0 0 227 161" fill="none" xmlns="http://www.w3.org/2000/svg">
<path d="M105.698 148.299C58.244 144.683 1.65327 107.869 4.53439 69.9628C7.41551 32.0564 62.2243 -3.23122 109.678 0.384459C157.132 4.00014 184.448 74.8407 181.567 112.747C178.685 150.653 153.151 151.915 105.698 148.299Z" fill="#00C1FF"/>
<path d="M109.995 154.074C168.271 154.074 215.514 151.107 215.514 147.448C215.514 143.788 168.271 140.821 109.995 140.821C51.7181 140.821 4.47559 143.788 4.47559 147.448C4.47559 151.107 51.7181 154.074 109.995 154.074Z" fill="#3F3D56"/>
<path d="M45.4348 108.671C45.4348 125.409 35.4842 131.254 23.2096 131.254C10.9349 131.254 0.984375 125.409 0.984375 108.671C0.984375 91.933 23.2096 70.6394 23.2096 70.6394C23.2096 70.6394 45.4348 91.933 45.4348 108.671Z" fill="#F2F2F2"/>
<path d="M22.3995 128.693L22.6271 114.685L32.1 97.3546L22.6628 112.487L22.7652 106.189L29.2936 93.6506L22.7922 104.522L22.9762 93.1933L29.9672 83.2113L23.0051 91.412L23.12 70.6396L22.3974 98.1386L22.4567 97.0042L15.349 86.1245L22.3428 99.1819L21.6806 111.834L21.6609 111.498L13.4668 100.049L21.636 112.684L21.5533 114.266L21.5384 114.29L21.5452 114.42L19.8648 146.52H22.1098L22.3791 129.94L30.5286 117.335L22.3995 128.693Z" fill="#3F3D56"/>
<path d="M185.486 101.033C185.486 101.033 185.486 106.482 184.003 106.868" stroke="#444053" stroke-miterlimit="10"/>
<path d="M173.357 108.086C173.357 108.086 179.249 108.589 181.967 105.549" stroke="#444053" stroke-miterlimit="10"/>
<path d="M183.966 94.5857C183.966 94.5857 182.547 100.115 178.607 101.612" stroke="#444053" stroke-miterlimit="10"/>
<path d="M169.813 102.264C169.813 102.264 173.986 103.712 177.572 100.02" stroke="#444053" stroke-miterlimit="10"/>
<path d="M179.329 89.844C179.329 89.844 178.943 94.5395 176.383 96.7348" stroke="#444053" stroke-miterlimit="10"/>
<path d="M169.981 95.1105C169.981 95.1105 173.442 95.1337 174.253 94.0051" stroke="#444053" stroke-miterlimit="10"/>
<path d="M187.919 46.8244V139.961C187.919 140.528 187.808 141.09 187.591 141.614C187.374 142.139 187.056 142.615 186.655 143.017C186.254 143.418 185.778 143.737 185.253 143.954C184.729 144.171 184.167 144.283 183.6 144.284H33.2324C32.1552 144.283 31.117 143.881 30.3215 143.154C29.526 142.428 29.0305 141.431 28.9324 140.358C28.9191 140.226 28.9127 140.093 28.9131 139.961V46.8244C28.9131 46.7299 28.9131 46.6315 28.9228 46.5466H187.906C187.911 46.6315 187.919 46.726 187.919 46.8244Z" fill="#4C4C78"/>
<path d="M183.599 42.6941H33.2315C32.4729 42.6939 31.7276 42.8934 31.0707 43.2727C30.4137 43.652 29.8682 44.1976 29.489 44.8547C29.1561 45.4297 28.9619 46.0744 28.9219 46.7375H187.905C187.835 45.6428 187.351 44.6157 186.551 43.8648C185.751 43.1138 184.696 42.6953 183.599 42.6941Z" fill="#00C1FF"/>
<path d="M33.2219 45.935C33.8185 45.935 34.3022 45.4514 34.3022 44.8547C34.3022 44.2581 33.8185 43.7744 33.2219 43.7744C32.6253 43.7744 32.1416 44.2581 32.1416 44.8547C32.1416 45.4514 32.6253 45.935 33.2219 45.935Z" fill="#EDEDF4"/>
<path d="M36.4612 45.935C37.0578 45.935 37.5415 45.4514 37.5415 44.8547C37.5415 44.2581 37.0578 43.7744 36.4612 43.7744C35.8645 43.7744 35.3809 44.2581 35.3809 44.8547C35.3809 45.4514 35.8645 45.935 36.4612 45.935Z" fill="#EDEDF4"/>
<path d="M39.7024 45.935C40.299 45.935 40.7827 45.4514 40.7827 44.8547C40.7827 44.2581 40.299 43.7744 39.7024 43.7744C39.1057 43.7744 38.6221 44.2581 38.6221 44.8547C38.6221 45.4514 39.1057 45.935 39.7024 45.935Z" fill="#EDEDF4"/>
<path d="M56.921 50.1812H34.4854V52.2472H56.921V50.1812Z" fill="#00C1FF"/>
<path opacity="0.5" d="M56.921 60.2568H34.4854V62.3229H56.921V60.2568Z" fill="#00C1FF"/>
<path opacity="0.5" d="M56.921 67.3774H34.4854V69.4435H56.921V67.3774Z" fill="#00C1FF"/>
<path opacity="0.5" d="M56.921 74.4998H34.4854V76.5659H56.921V74.4998Z" fill="#00C1FF"/>
<path opacity="0.5" d="M56.921 81.6218H34.4854V83.6879H56.921V81.6218Z" fill="#00C1FF"/>
<path opacity="0.5" d="M56.921 88.7444H34.4854V90.8104H56.921V88.7444Z" fill="#00C1FF"/>
<path opacity="0.5" d="M56.921 95.8667H34.4854V97.9328H56.921V95.8667Z" fill="#00C1FF"/>
<path opacity="0.5" d="M56.921 102.989H34.4854V105.055H56.921V102.989Z" fill="#00C1FF"/>
<path opacity="0.5" d="M180.291 57.7781H80.876V58.1099H180.291V57.7781Z" fill="#DCE0ED"/>
<path opacity="0.5" d="M180.291 65.4907H80.876V65.8225H180.291V65.4907Z" fill="#DCE0ED"/>
<path opacity="0.5" d="M180.291 73.2034H80.876V73.5352H180.291V73.2034Z" fill="#DCE0ED"/>
<path opacity="0.5" d="M180.291 80.9158H80.876V81.2476H180.291V80.9158Z" fill="#DCE0ED"/>
<path opacity="0.5" d="M180.291 88.6284H80.876V88.9602H180.291V88.6284Z" fill="#DCE0ED"/>
<path opacity="0.5" d="M180.291 88.9565H80.752V73.7897L89.8825 78.2884L99.3294 79.5693L107.619 77.0711L117.619 69.3141L122.651 66.4089L126.327 65.7009L129.846 65.8899L135.634 68.747L143.499 73.7569L149.67 74.5517L154.566 72.8637L164.939 64.3659L170.236 62.4792L175.779 63.3358L180.291 65.942V88.9565Z" fill="#00C1FF"/>
<path d="M98.1025 79.5752C89.1379 79.5752 80.8561 74.0926 80.752 74.0232L80.9989 73.6547C81.1262 73.7396 93.8777 82.1757 104.71 77.949C108.659 76.4057 111.473 74.0136 114.193 71.6947C117.033 69.2756 119.716 66.9896 123.372 65.998C127.568 64.8618 132.152 65.89 135.634 68.7528C138.61 71.199 144.54 75.1189 150.802 73.9615C153.997 73.3615 156.688 71.0292 159.537 68.5599C164.991 63.8181 170.647 58.9239 180.424 65.946L180.162 66.3086C170.674 59.4892 165.159 64.2676 159.827 68.8898C156.933 71.3977 154.196 73.7686 150.885 74.3897C144.442 75.5993 138.388 71.5925 135.352 69.0962C131.98 66.326 127.545 65.3286 123.49 66.4282C119.929 67.3928 117.282 69.6479 114.481 72.0343C111.732 74.3762 108.886 76.7973 104.872 78.3637C102.711 79.1866 100.415 79.5975 98.1025 79.5752Z" fill="#00C1FF"/>
<path d="M128.713 68.1201C130.073 68.1201 131.176 67.0172 131.176 65.6566C131.176 64.2961 130.073 63.1931 128.713 63.1931C127.352 63.1931 126.249 64.2961 126.249 65.6566C126.249 67.0172 127.352 68.1201 128.713 68.1201Z" fill="#00C1FF"/>
<g opacity="0.5">
<path opacity="0.5" d="M104.274 106.236H89.6611V109.336H104.274V106.236Z" fill="#DCE0ED"/>
<path opacity="0.5" d="M137.829 106.236H123.216V109.336H137.829V106.236Z" fill="#DCE0ED"/>
<path opacity="0.5" d="M171.383 106.236H156.77V109.336H171.383V106.236Z" fill="#DCE0ED"/>
</g>
<path d="M88.6266 127.884C88.6266 123.359 92.3093 119.882 96.8351 119.882H96.8929V117.816H96.8273C91.1654 117.816 86.5605 122.216 86.5605 127.878C86.5605 129.343 86.8744 130.791 87.4811 132.124C88.0877 133.457 88.973 134.644 90.0773 135.607L91.5358 134.146C90.6241 133.377 89.8915 132.418 89.389 131.337C88.8865 130.255 88.6263 129.077 88.6266 127.884Z" fill="#00C1FF"/>
<path opacity="0.5" d="M97.1056 117.816V119.876C98.4251 119.884 99.7233 120.209 100.89 120.825C102.057 121.441 103.059 122.329 103.81 123.414C104.56 124.499 105.039 125.749 105.204 127.058C105.369 128.367 105.216 129.697 104.758 130.934C104.3 132.172 103.55 133.28 102.573 134.166C101.595 135.053 100.418 135.69 99.1418 136.025C97.8654 136.359 96.5272 136.382 95.2406 136.089C93.9539 135.797 92.7567 135.198 91.7504 134.345L90.292 135.803C91.5387 136.894 93.0309 137.667 94.641 138.055C96.2512 138.444 97.9316 138.437 99.5385 138.035C101.145 137.634 102.631 136.849 103.869 135.748C105.107 134.648 106.06 133.264 106.647 131.715C107.234 130.166 107.437 128.497 107.239 126.853C107.041 125.208 106.448 123.636 105.51 122.27C104.573 120.905 103.319 119.786 101.855 119.011C100.392 118.235 98.762 117.825 97.1056 117.816Z" fill="#00C1FF"/>
<path opacity="0.5" d="M164.413 119.78C168.938 119.78 172.415 123.461 172.415 127.986V128.052H174.473C174.473 128.031 174.473 128.01 174.473 127.986C174.473 122.326 170.073 117.72 164.411 117.72C162.948 117.721 161.503 118.035 160.171 118.642C158.84 119.249 157.655 120.133 156.694 121.237L158.153 122.697C158.921 121.784 159.879 121.05 160.96 120.546C162.042 120.042 163.22 119.781 164.413 119.78Z" fill="#00C1FF"/>
<path d="M174.475 128.258H172.417C172.409 129.578 172.083 130.876 171.467 132.043C170.851 133.209 169.963 134.211 168.878 134.961C167.793 135.712 166.543 136.19 165.234 136.355C163.925 136.52 162.595 136.366 161.358 135.908C160.121 135.45 159.012 134.7 158.126 133.723C157.24 132.745 156.603 131.568 156.268 130.292C155.934 129.016 155.912 127.678 156.204 126.391C156.496 125.105 157.095 123.908 157.948 122.901L156.49 121.443C155.4 122.69 154.627 124.182 154.239 125.793C153.851 127.403 153.858 129.083 154.26 130.69C154.662 132.297 155.447 133.783 156.548 135.021C157.649 136.258 159.033 137.211 160.582 137.798C162.131 138.385 163.799 138.588 165.444 138.39C167.088 138.192 168.66 137.6 170.026 136.662C171.392 135.725 172.511 134.471 173.287 133.008C174.063 131.544 174.473 129.915 174.483 128.258H174.475Z" fill="#00C1FF"/>
<path opacity="0.5" d="M134.578 118.428L134.169 120.476C137.183 121.694 139.108 124.647 139.108 128.091C139.108 129.57 138.707 131.022 137.949 132.293C137.191 133.563 136.104 134.606 134.802 135.309C133.501 136.012 132.033 136.351 130.555 136.289C129.077 136.227 127.643 135.766 126.405 134.956C125.167 134.146 124.171 133.017 123.522 131.687C122.874 130.357 122.596 128.877 122.72 127.403C122.843 125.928 123.363 124.515 124.224 123.311C125.085 122.108 126.255 121.16 127.61 120.567L126.688 118.725C125.005 119.482 123.557 120.68 122.496 122.191C121.436 123.703 120.803 125.472 120.664 127.313C120.525 129.154 120.884 130.998 121.705 132.652C122.526 134.306 123.778 135.707 125.328 136.71C126.878 137.712 128.67 138.277 130.515 138.347C132.36 138.416 134.19 137.987 135.811 137.104C137.432 136.221 138.786 134.918 139.729 133.33C140.671 131.743 141.169 129.931 141.168 128.085C141.168 123.648 138.537 119.855 134.578 118.428Z" fill="#00C1FF"/>
<path d="M131.159 119.763C132.142 119.762 133.114 119.964 134.016 120.357L134.425 118.308C133.382 117.907 132.275 117.701 131.159 117.702C129.706 117.701 128.27 118.011 126.947 118.609L127.867 120.453C128.905 119.997 130.025 119.762 131.159 119.763Z" fill="#00C1FF"/>
<path opacity="0.1" d="M42.0849 72.8926C42.0849 72.8926 41.1377 71.5595 40.2098 72.4103C39.2819 73.261 42.0849 72.8926 42.0849 72.8926Z" fill="black"/>
<path opacity="0.1" d="M0.983159 137.289L0.790039 137.244L0.983159 137.289Z" fill="black"/>
<path opacity="0.1" d="M1.1115 137.314L1.01562 137.3L1.12128 137.32L1.1115 137.314Z" fill="black"/>
<path opacity="0.3" d="M27.5137 128.463C27.5349 128.687 27.5445 128.909 27.5523 129.103C27.5576 129.35 27.6506 129.587 27.8146 129.771L27.8262 129.784C27.8884 129.328 27.9168 128.868 27.9111 128.407C27.8706 128.467 27.695 128.474 27.5137 128.463Z" fill="white"/>
<path d="M201.339 149.387C201.339 149.387 198.397 154.718 194.26 155.116C190.124 155.515 190.025 158.006 192.915 158.903C195.805 159.801 201.887 158.903 201.887 158.903L210.559 156.761C210.559 156.761 209.512 148.189 208.117 147.742C206.723 147.294 201.339 149.387 201.339 149.387Z" fill="#4C4C78"/>
<path d="M211.91 149.485C211.91 149.485 209.716 159.351 210.269 159.752C210.822 160.152 219.14 162.292 219.44 158.854C219.464 158.565 219.485 158.288 219.504 158.024C219.627 155.814 219.331 153.599 218.632 151.498C218.397 150.795 218.233 150.043 218.294 149.485C218.433 148.091 211.91 149.485 211.91 149.485Z" fill="#4C4C78"/>
<path d="M209.188 24.581C209.188 24.581 202.459 41.1065 203.657 35.7987C204.449 32.2837 199.328 27.6133 195.786 24.8692C193.984 23.4632 192.592 22.5704 192.592 22.5704C192.592 22.5704 205.225 7.84461 204.33 14.1975C204.084 15.9374 204.322 17.7114 205.019 19.3248C206.413 22.6384 209.188 24.581 209.188 24.581Z" fill="#FFB9B9"/>
<path d="M166.205 48.0567C165.849 47.9653 165.267 48.0239 164.665 48.1527C163.645 48.3883 162.642 48.6929 161.663 49.0643C161.663 49.0643 156.71 49.6619 157.458 44.469C158.013 40.5977 162.417 42.0037 164.623 42.9645C165.373 43.2949 165.87 43.5715 165.87 43.5715L166.205 48.0567Z" fill="#FFB9B9"/>
<path opacity="0.1" d="M166.206 48.0568C165.849 47.9654 165.268 48.0239 164.666 48.1528C164.127 46.7937 164.537 43.5715 164.624 42.9646C165.374 43.295 165.87 43.5715 165.87 43.5715L166.206 48.0568Z" fill="black"/>
<path d="M166.226 43.0984L164.93 42.864C164.93 42.864 164.267 47.3164 165.134 48.4881H166.625L166.226 43.0984Z" fill="#CBCDDA"/>
<path d="M192.222 51.2226C192.222 51.2226 188.26 48.8534 187.787 51.8436C187.314 54.8337 186.69 59.9423 186.69 59.9423L185.593 66.4451L184.173 79.4743L184.372 81.6912C184.372 81.6912 188.591 80.2711 189.58 80.7702C190.569 81.2693 191.375 75.2891 191.375 75.2891L193.016 69.1096L193.265 56.0054L192.222 51.2226Z" fill="#4C4C78"/>
<path opacity="0.1" d="M192.222 51.2226C192.222 51.2226 188.26 48.8534 187.787 51.8436C187.314 54.8337 186.69 59.9423 186.69 59.9423L185.593 66.4451L184.173 79.4743L184.372 81.6912C184.372 81.6912 188.591 80.2711 189.58 80.7702C190.569 81.2693 191.375 75.2891 191.375 75.2891L193.016 69.1096L193.265 56.0054L192.222 51.2226Z" fill="black"/>
<path d="M190.087 35.8735C190.087 35.8735 185.975 40.5087 179.734 41.4414C173.492 42.3741 165.791 42.6764 165.791 42.6764C165.791 42.6764 163.847 46.1516 166.651 49.8518L182.354 49.505C182.354 49.505 185.83 48.7504 188.523 49.505L190.087 35.8735Z" fill="#4C4C78"/>
<path opacity="0.05" d="M190.087 35.8735C190.087 35.8735 185.975 40.5087 179.734 41.4414C173.492 42.3741 165.791 42.6764 165.791 42.6764C165.791 42.6764 163.847 46.1516 166.651 49.8518L182.354 49.505C182.354 49.505 185.83 48.7504 188.523 49.505L190.087 35.8735Z" fill="black"/>
<path opacity="0.1" d="M204.353 19.1819C202.82 22.4626 200.155 24.881 196.29 24.881C196.119 24.881 195.953 24.881 195.786 24.8692C193.984 23.4632 192.592 22.5704 192.592 22.5704C192.592 22.5704 205.225 7.84461 204.33 14.1975C204.053 16.1425 203.737 17.7219 204.353 19.1819Z" fill="black"/>
<path d="M205.919 14.9519C205.917 16.8561 205.351 18.7172 204.292 20.2998C203.233 21.8824 201.728 23.1154 199.968 23.8431C198.208 24.5707 196.272 24.7603 194.404 24.3877C192.536 24.0152 190.821 23.0974 189.475 21.7502C188.129 20.4031 187.212 18.6871 186.841 16.8194C186.471 14.9516 186.662 13.0158 187.392 11.2568C188.121 9.49778 189.356 7.99452 190.94 6.93708C192.524 5.87963 194.386 5.31547 196.29 5.31594C197.556 5.31346 198.81 5.56108 199.98 6.04457C201.15 6.52806 202.213 7.2379 203.107 8.1333C204.002 9.02869 204.711 10.092 205.194 11.2622C205.676 12.4323 205.922 13.6862 205.919 14.9519Z" fill="#FFB9B9"/>
<path d="M211.804 73.7943C211.804 73.7943 190.325 75.6901 189.538 72.9483C188.75 70.2066 191.729 62.7828 191.729 62.7828L190.759 52.418L190.724 52.022C190.724 52.022 193.414 40.8089 193.316 39.9138C193.222 39.1076 197.647 29.699 198.557 27.7751C198.665 27.5525 198.721 27.4306 198.721 27.4306L198.892 27.529L198.967 27.5735L200.019 28.1875L204.175 27.2033L209.184 24.5811L209.652 53.2663L211.804 73.7943Z" fill="#CBCDDA"/>
<path opacity="0.1" d="M200.64 27.7773C200.64 27.7773 199.17 27.3789 198.596 28.8482C198.371 29.4798 198.105 30.0959 197.799 30.6924L197.227 34.1044L196.18 39.4941L195.406 63.338L195.755 67.5725L197.675 64.1605L198.024 41.8727V39.1005C198.137 36.7036 198.678 34.3464 199.623 32.1406L199.89 31.515L201.559 29.3708L200.64 27.7773Z" fill="black"/>
<path d="M200.343 27.4772C200.343 27.4772 198.871 27.0789 198.299 28.5482C198.074 29.1799 197.807 29.7961 197.5 30.3924L196.928 33.8067L195.88 39.1964L195.109 63.0403L195.459 67.2771L197.378 63.8534L197.727 41.5797V38.8004C197.842 36.4039 198.383 34.047 199.326 31.8406L199.595 31.2149L201.264 29.0731L200.343 27.4772Z" fill="#4C4C78"/>
<path opacity="0.1" d="M206.621 21.3237C206.621 21.3237 201.538 26.7135 199.742 27.3532C199.742 27.3532 200.64 31.4401 201.538 32.2368C201.538 32.2368 206.872 26.7979 207.817 26.3573L208.609 24.4193L206.621 21.3237Z" fill="black"/>
<path d="M206.621 21.0166C206.621 21.0166 201.538 26.4064 199.742 27.0461C199.742 27.0461 200.64 31.133 201.538 31.9297C201.538 31.9297 206.872 26.4907 207.817 26.0502L208.609 24.1145L206.621 21.0166Z" fill="#CBCDDA"/>
<path opacity="0.1" d="M199.018 27.4304L198.967 27.571L197.338 31.9367L194.425 40.1737C194.425 40.1737 194.399 40.2581 194.347 40.408C193.864 41.9078 191.27 50.0463 190.759 52.4108L190.724 52.0148C190.724 52.0148 193.414 40.8017 193.316 39.9065C193.222 39.1004 197.647 29.6918 198.557 27.7679C198.702 27.6694 198.814 27.5851 198.892 27.5218L199.018 27.4304Z" fill="black"/>
<path d="M198.721 27.4282L197.038 31.9369L194.124 40.1738C194.124 40.1738 194.099 40.2582 194.047 40.4082C193.536 42.0064 190.623 51.1291 190.388 52.7976C190.124 54.6301 186.46 64.5356 186.46 64.5356L184.367 81.6867C182.492 80.2315 185.155 66.2205 185.155 66.2205C185.155 66.2205 188.145 45.4418 188.853 38.5288C189.561 31.6158 193.379 29.5958 193.379 29.5958C195.142 29.5068 196.731 28.7288 197.708 28.1312C198.061 27.9199 198.399 27.6851 198.721 27.4282Z" fill="#4C4C78"/>
<path opacity="0.1" d="M219.827 137.775C219.38 141.115 218.782 150.429 218.782 150.429C216.689 153.567 212.053 151.873 212.053 151.873C212.053 151.873 211.556 150.936 210.808 147.388C210.061 143.84 209.613 131.343 209.613 131.343L207.867 120.844C206.273 116.807 205.924 112.024 205.924 112.024C205.221 110.18 203.531 98.0715 203.531 98.0715C203.531 98.0715 204.234 108.933 203.782 114.665C203.329 120.397 206.071 128.109 206.071 128.109C206.071 128.109 207.618 135.336 206.819 137.578C206.02 139.821 208.814 149.087 208.814 149.087C208.579 151.779 200.643 150.683 200.643 150.683C200.643 150.683 196.909 140.665 196.256 134.635C195.864 131.002 195.222 127.401 194.336 123.856L193.689 115.483L192.541 110.534L191.172 104.007C189.625 99.2244 189.154 91.2264 189.154 91.2264L187.956 83.3785C187.173 79.4979 188.19 74.9423 188.866 72.5591C189.158 71.5257 189.393 70.8953 189.393 70.8953C190.08 71.3827 194.013 71.9545 196.047 72.4185C197.16 72.6751 198.305 72.7667 199.445 72.6903C204.589 72.282 209.677 71.3492 214.631 69.9064C214.966 69.8057 215.144 69.7471 215.144 69.7471L215.25 70.6446L215.498 72.7817L215.941 76.5757C215.941 76.5757 217.287 96.806 216.49 99.5408C215.693 102.275 217.038 111.492 217.038 111.492C216.29 113.678 218.632 122.564 218.632 122.564C218.632 122.564 220.277 134.436 219.827 137.775Z" fill="black"/>
<path d="M219.827 137.482C219.38 140.822 218.782 150.137 218.782 150.137C216.689 153.277 212.053 151.58 212.053 151.58C212.053 151.58 211.556 150.643 210.808 147.097C210.061 143.552 209.613 131.05 209.613 131.05L207.867 120.537C206.285 116.5 205.924 111.705 205.924 111.705C205.221 109.861 203.531 97.7527 203.531 97.7527C203.531 97.7527 204.234 108.614 203.782 114.346C203.329 120.078 206.071 127.799 206.071 127.799C206.071 127.799 207.618 135.026 206.819 137.269C206.02 139.512 208.814 148.78 208.814 148.78C208.579 151.47 200.643 150.373 200.643 150.373C200.643 150.373 196.909 140.367 196.256 134.335C195.864 130.702 195.222 127.101 194.336 123.556L193.689 115.185L192.541 110.252L191.172 103.726C189.625 98.9408 189.154 90.9429 189.154 90.9429L187.956 83.0949C187.173 79.2143 188.19 74.6587 188.866 72.2755C189.158 71.2444 189.393 70.6141 189.393 70.6141C190.08 71.1015 194.013 71.6709 196.047 72.1349C197.16 72.3926 198.305 72.4842 199.445 72.4068C204.589 71.9984 209.677 71.0656 214.631 69.6228L215.144 69.4658L215.25 70.361L215.498 72.5005L215.941 76.2944C215.941 76.2944 217.287 96.5224 216.49 99.2595C215.693 101.997 217.038 111.211 217.038 111.211C216.29 113.395 218.632 122.281 218.632 122.281C218.632 122.281 220.277 134.138 219.827 137.482Z" fill="#474463"/>
<path opacity="0.1" d="M205.919 14.952C205.922 16.6358 205.482 18.2908 204.644 19.7512C203.144 20.016 201.548 19.7231 200.425 18.7318C199.656 18.0546 199.159 17.129 198.498 16.3439C198.071 15.8615 197.611 15.4082 197.123 14.9871C196.804 14.6695 196.438 14.4032 196.037 14.1974C195.836 14.0957 195.614 14.0416 195.389 14.0392C195.163 14.0367 194.94 14.0861 194.737 14.1833C194.207 14.4786 194.033 15.1371 193.726 15.662C193.495 16.1126 193.1 16.4574 192.622 16.6251C192.384 16.7015 192.126 16.6993 191.889 16.6187C191.651 16.5382 191.446 16.3835 191.303 16.1776C190.977 15.6175 191.216 14.7434 190.67 14.4013C190.526 14.3302 190.377 14.2691 190.225 14.2185C189.522 13.8998 189.44 12.9554 189.379 12.1821C189.348 11.8025 189.266 11.3736 188.947 11.1698C188.629 10.9659 188.209 11.069 187.829 11.076C187.717 11.0804 187.604 11.0718 187.494 11.0503C188.389 9.03292 189.95 7.38422 191.916 6.38017C193.882 5.37611 196.133 5.07764 198.292 5.53471C200.452 5.99179 202.388 7.17666 203.779 8.89099C205.169 10.6053 205.928 12.745 205.928 14.952H205.919Z" fill="black"/>
<path d="M186.903 2.42895C186.533 2.70196 186.225 3.05116 186.002 3.45298C185.778 3.85481 185.643 4.29992 185.607 4.75826C185.589 4.91143 185.601 5.06658 185.642 5.21523C185.707 5.37298 185.786 5.52504 185.876 5.66984C186.368 6.64703 185.616 7.80466 185.712 8.89433C185.777 9.4091 186.027 9.88277 186.415 10.2275C186.803 10.5722 187.303 10.7646 187.822 10.769C188.201 10.769 188.618 10.6565 188.94 10.8628C189.261 11.069 189.34 11.4955 189.371 11.8751C189.432 12.6484 189.509 13.5928 190.215 13.9115C190.367 13.9633 190.515 14.0243 190.66 14.0943C191.208 14.4364 190.969 15.3128 191.295 15.8706C191.438 16.0765 191.644 16.2312 191.881 16.3117C192.119 16.3923 192.376 16.3945 192.615 16.3181C193.092 16.1511 193.486 15.8071 193.716 15.3574C194.019 14.8301 194.199 14.1857 194.729 13.8787C194.932 13.7805 195.155 13.7305 195.381 13.7325C195.606 13.7346 195.828 13.7886 196.03 13.8904C196.43 14.097 196.796 14.3642 197.115 14.6825C197.604 15.103 198.063 15.5563 198.491 16.0393C199.152 16.822 199.648 17.7476 200.417 18.4248C201.866 19.6973 204.083 19.8309 205.869 19.0974C206.127 19.0114 206.359 18.8634 206.546 18.6662C206.709 18.4395 206.815 18.1765 206.853 17.8999C207.035 17.0178 207.087 16.1139 207.008 15.2168C206.945 14.5137 206.802 13.8107 206.851 13.1077C206.9 12.3531 207.17 11.6244 207.207 10.8698C207.273 9.53407 206.61 8.2663 205.801 7.20944C205.313 6.57907 204.765 5.99557 204.343 5.32068C203.975 4.73483 203.708 4.0904 203.314 3.52331C202.391 2.1993 200.834 1.41427 199.245 1.14009C197.656 0.865916 196.023 1.03464 194.431 1.29944C193.044 1.53378 191.647 1.86654 190.24 1.94856C189.01 2.03526 188.018 1.62048 186.903 2.42895Z" fill="#472727"/>
<path opacity="0.1" d="M198.72 27.4282L197.038 31.9369L194.124 40.1738C194.124 40.1738 194.098 40.2582 194.047 40.4082V40.4199L197.713 28.1266C198.064 27.9166 198.401 27.6833 198.72 27.4282Z" fill="black"/>
<path d="M216.913 79.027C216.913 79.027 217.086 84.4824 215.617 85.8533L211.705 78.4787L214.986 76.8828L216.913 79.027Z" fill="#FFB9B9"/>
<path opacity="0.1" d="M226.045 81.0186C224.25 83.1112 216.435 83.4862 216.435 83.4862L208.701 71.3006C208.701 71.3006 206.87 70.0305 203.432 64.3103C199.993 58.5901 200.106 54.1846 200.298 50.8945C200.49 47.6044 202.642 38.1489 202.642 38.1489C202.977 36.0211 207.798 22.6826 207.798 22.6826C208.305 23.6926 209.247 24.5362 210.348 25.2322C213.325 27.1069 217.481 27.8755 217.481 27.8755C224.175 28.848 222.939 35.761 222.939 35.761C222.939 35.761 223.014 62.6325 222.602 65.8476C222.189 69.0627 226.045 81.0186 226.045 81.0186Z" fill="black"/>
<path d="M217.014 80.0721L216.789 82.0664L214.072 81.0704L212.08 78.0545L213.575 76.8828L217.014 80.0721Z" fill="#CBCDDA"/>
<path opacity="0.1" d="M216.918 72.3483L215.498 72.4936L201.803 73.8621C199.604 74.083 197.384 73.974 195.217 73.5388L188.865 72.2687C189.158 71.2376 189.393 70.6072 189.393 70.6072C190.079 71.0946 194.012 71.6641 196.047 72.128C197.16 72.3858 198.305 72.4774 199.445 72.3999C204.589 71.9916 209.677 71.0587 214.631 69.616L215.25 70.3541L216.918 72.3483Z" fill="black"/>
<g opacity="0.1">
<path opacity="0.1" d="M189.535 70.6822C189.49 70.6599 189.446 70.6348 189.404 70.6072C189.404 70.6072 189.404 70.6212 189.39 70.6423L189.535 70.6822Z" fill="black"/>
<path opacity="0.1" d="M218.642 122.279C218.642 122.279 216.299 113.393 217.049 111.209C217.049 111.209 215.703 101.999 216.502 99.2573C217.302 96.5156 215.952 76.2922 215.952 76.2922L215.509 72.4983L215.26 70.3588L215.157 69.4636L214.641 69.6206L214.323 69.7144L214.363 70.0612L214.611 72.1983L215.054 75.9923C215.054 75.9923 216.399 96.2226 215.605 98.9573C214.81 101.692 216.151 110.909 216.151 110.909C215.403 113.095 217.745 121.979 217.745 121.979C217.745 121.979 219.385 133.841 218.942 137.178C218.499 140.515 217.895 149.832 217.895 149.832C216.367 152.126 213.481 151.84 212.035 151.519L212.061 151.576C212.061 151.576 216.697 153.272 218.79 150.132C218.79 150.132 219.388 140.812 219.838 137.478C220.288 134.143 218.642 122.279 218.642 122.279Z" fill="black"/>
<path opacity="0.1" d="M206.833 137.279C207.629 135.036 206.085 127.809 206.085 127.809C206.085 127.809 203.345 120.076 203.793 114.356C203.98 111.968 203.968 108.692 203.889 105.685C203.254 101.807 202.644 97.4834 202.644 97.4834C202.644 97.4834 203.347 108.345 202.897 114.074C202.447 119.804 205.187 127.53 205.187 127.53C205.187 127.53 206.734 134.755 205.935 136.997C205.136 139.24 207.925 148.496 207.925 148.496C207.726 150.652 202.604 150.371 200.572 150.184L200.65 150.39C200.65 150.39 208.574 151.486 208.822 148.796C208.827 148.789 206.036 139.521 206.833 137.279Z" fill="black"/>
</g>
<path d="M226.343 81.0186C224.55 83.1112 216.733 83.4862 216.733 83.4862L208.998 71.3006C208.998 71.3006 207.168 70.0305 203.727 64.3103C200.286 58.5901 200.404 54.1846 200.593 50.8945C200.783 47.6044 202.937 38.1489 202.937 38.1489C203.272 36.0211 208.094 22.6826 208.094 22.6826C208.597 23.6926 209.54 24.5362 210.644 25.2322C213.62 27.1069 217.776 27.8755 217.776 27.8755C224.467 28.848 223.232 35.761 223.232 35.761C223.232 35.761 223.307 62.6325 222.895 65.8476C222.482 69.0627 226.343 81.0186 226.343 81.0186Z" fill="#4C4C78"/>
<path opacity="0.1" d="M209.526 29.2958L207.843 29.9215L208.963 30.7065L200.596 50.8877C200.79 47.6069 202.94 38.1421 202.94 38.1421C203.275 36.0143 208.096 22.6758 208.096 22.6758C208.6 23.6858 209.542 24.5294 210.646 25.2254L209.526 29.2958Z" fill="black"/>
<path opacity="0.1" d="M211.544 65.2478L220.104 63.0427L221.226 66.518L212.479 68.6504L211.544 65.2478Z" fill="black"/>
<path opacity="0.1" d="M216.44 30.7159C216.44 30.7159 212.552 34.374 214.019 42.5266C215.486 50.6792 217.832 59.5301 217.832 59.5301L211.504 77.0585C211.504 77.0585 215.915 81.6562 218.083 82.2139L224.4 68.1982C224.4 68.1982 227.353 63.3404 226.568 55.7174C225.782 48.0944 222.942 35.7589 222.942 35.7589C222.942 35.7589 222.944 28.2507 216.44 30.7159Z" fill="black"/>
<path d="M216.737 30.7159C216.737 30.7159 212.847 34.374 214.309 42.5266C215.772 50.6792 218.12 59.5301 218.12 59.5301L211.792 77.0585C211.792 77.0585 216.203 81.6562 218.371 82.2139L224.699 68.1982C224.699 68.1982 227.653 63.3404 226.867 55.7174C226.082 48.0944 223.242 35.7589 223.242 35.7589C223.242 35.7589 223.242 28.2507 216.737 30.7159Z" fill="#4C4C78"/>
<path opacity="0.1" d="M212.004 77.4311C212.004 77.4311 216.937 84.2597 216.565 86.0782C216.192 87.8966 214.746 86.9241 214.746 86.9241L212.803 84.2597L211.057 79.2753C211.057 79.2753 211.228 77.1241 212.004 77.4311Z" fill="black"/>
<path opacity="0.1" d="M211.406 77.4311C211.406 77.4311 216.328 84.2597 215.967 86.0782C215.606 87.8966 214.148 86.9241 214.148 86.9241L212.203 84.2597L210.459 79.2753C210.459 79.2753 210.63 77.1241 211.406 77.4311Z" fill="black"/>
<path d="M211.706 77.4311C211.706 77.4311 216.628 84.2597 216.264 86.0782C215.901 87.8966 214.446 86.9241 214.446 86.9241L212.503 84.2597L210.759 79.2753C210.759 79.2753 210.928 77.1241 211.706 77.4311Z" fill="#474463"/>
</svg>
